<svg width="24" height="25" viewBox="0 0 24 25" fill="none" xmlns="http://www.w3.org/2000/svg">
<path d="M17.9401 10.0547H16.8824C16.3302 10.0547 15.8824 9.60703 15.8824 9.05475V3.58416C15.8824 2.87239 15.3001 2.29004 14.5883 2.29004H9.41182C8.70005 2.29004 8.1177 2.87239 8.1177 3.58416V9.05474C8.1177 9.60703 7.66998 10.0547 7.1177 10.0547H6.06005C4.90829 10.0547 4.32593 11.4524 5.14123 12.2677L11.0813 18.2077C11.586 18.7124 12.4013 18.7124 12.906 18.2077L18.846 12.2677C19.6613 11.4524 19.0919 10.0547 17.9401 10.0547Z" fill="url(#paint0_linear_1012_812)"/>
<path d="M4.23553 23.3079C3.52377 23.3079 2.94141 22.5455 2.94141 21.6134C2.94141 20.6814 3.52377 19.9189 4.23553 19.9189H19.7649C20.4767 19.9189 21.059 20.6814 21.059 21.6134C21.059 22.5455 20.4767 23.3079 19.7649 23.3079H4.23553Z" fill="url(#paint1_linear_1012_812)"/>
<defs>
<linearGradient id="paint0_linear_1012_812" x1="11.9952" y1="18.5862" x2="11.9952" y2="2.29004" gradientUnits="userSpaceOnUse">
<stop stop-color="#02AA93"/>
<stop offset="1" stop-color="#67FF80"/>
</linearGradient>
<linearGradient id="paint1_linear_1012_812" x1="12.0002" y1="23.3079" x2="12.0002" y2="19.9189" gradientUnits="userSpaceOnUse">
<stop stop-color="#02AA93"/>
<stop offset="1" stop-color="#67FF80"/>
</linearGradient>
</defs>
</svg>
