<svg width="24" height="24" viewBox="0 0 24 24" fill="none" xmlns="http://www.w3.org/2000/svg">
<path d="M11.9989 1.5083C9.44706 1.51343 6.98031 2.43786 5.01775 4.116C4.83943 4.26856 4.82618 4.5399 4.98927 4.70889L5.98815 5.74479C6.13573 5.89796 6.37659 5.91176 6.54091 5.77626C8.08989 4.49874 10.013 3.79698 11.9997 3.79147C14.3353 3.79147 16.5751 4.75362 18.2267 6.4661C19.7891 8.08661 20.704 10.253 20.798 12.5331C20.8068 12.7518 20.987 12.9239 21.2054 12.9239H22.5929C22.8234 12.9239 23.0085 12.7326 23.0001 12.5018C22.8978 9.6277 21.7519 6.89306 19.7836 4.85194C17.7192 2.71111 14.9182 1.5084 11.9989 1.5083Z" fill="url(#paint0_linear_1012_671)"/>
<path d="M2.46642 8.54926C2.25993 8.33495 1.90103 8.40695 1.79303 8.68417C1.31961 9.899 1.05132 11.1902 1.00031 12.5005C0.991326 12.7315 1.17634 12.9237 1.40772 12.9237H2.79482C3.01304 12.9237 3.19257 12.7523 3.20215 12.5341C3.23888 11.6979 3.38634 10.8705 3.64045 10.0758C3.68612 9.93273 3.64969 9.77654 3.54562 9.66842L2.46642 8.54926Z" fill="url(#paint1_linear_1012_671)"/>
<path d="M11.9989 1.5083C9.44706 1.51343 6.98031 2.43786 5.01775 4.116C4.83943 4.26856 4.82618 4.5399 4.98927 4.70889L5.98815 5.74479C6.13573 5.89796 6.37659 5.91176 6.54091 5.77626C8.08989 4.49874 10.013 3.79698 11.9997 3.79147C14.3353 3.79147 16.5751 4.75362 18.2267 6.4661C19.7891 8.08661 20.704 10.253 20.798 12.5331C20.8068 12.7518 20.987 12.9239 21.2054 12.9239H22.5929C22.8234 12.9239 23.0085 12.7326 23.0001 12.5018C22.8978 9.6277 21.7519 6.89306 19.7836 4.85194C17.7192 2.71111 14.9182 1.5084 11.9989 1.5083Z" fill="url(#paint2_linear_1012_671)"/>
<path d="M3.54562 9.66842C3.64969 9.77654 3.68612 9.93273 3.64045 10.0758C3.38634 10.8705 3.23888 11.6979 3.20215 12.5341C3.19257 12.7523 3.01304 12.9237 2.79482 12.9237H1.40772C1.17634 12.9237 0.991326 12.7315 1.00031 12.5005C1.05132 11.1902 1.31961 9.899 1.79303 8.68417C1.90103 8.40695 2.25993 8.33495 2.46642 8.54926L3.54562 9.66842Z" fill="url(#paint3_linear_1012_671)"/>
<path fill-rule="evenodd" clip-rule="evenodd" d="M14.3998 8.15821C13.8922 8.02717 13.3638 8.28228 13.1513 8.76243L14.3998 8.15821ZM13.1513 8.76243L9.32409 17.3892C8.9767 17.8003 8.73487 18.2878 8.62053 18.8116L8.62006 18.8137L8.6179 18.8239C8.61597 18.8327 8.61426 18.8419 8.61275 18.8509L8.59151 18.9784C8.33657 20.5274 9.21792 22.0415 10.7201 22.4113C12.2109 22.7767 13.7041 21.8643 14.2407 20.4091L14.2611 20.354C14.2757 20.3153 14.2853 20.2783 14.2917 20.244L14.3291 20.131C14.3343 20.115 14.339 20.0988 14.343 20.0823L14.3463 20.0681C14.4237 19.7479 14.4548 19.4172 14.4357 19.0899C14.4312 19.0129 14.4265 18.942 14.422 18.8757C14.4071 18.6574 14.3956 18.4883 14.4111 18.3117L15.2006 9.29025C15.246 8.76869 14.9077 8.2893 14.3998 8.15821M11.8903 17.9142C11.5848 17.8406 11.2745 17.9525 11.1264 18.2862C11.0674 18.4186 10.9865 18.546 10.8865 18.6575C10.7389 18.822 10.6386 19.0155 10.5903 19.2194L10.576 19.3052C10.472 19.9389 10.833 20.3675 11.2004 20.4578C11.564 20.5468 12.0843 20.3449 12.3262 19.7824L12.3993 19.5604C12.4409 19.368 12.4387 19.1791 12.3999 19.01M11.8903 17.9142C12.1923 17.987 12.4002 18.2172 12.3693 18.5704L11.8903 17.9142Z" fill="url(#paint4_linear_1012_671)"/>
<defs>
<linearGradient id="paint0_linear_1012_671" x1="22.3799" y1="12.0002" x2="4.23103" y2="5.11713" gradientUnits="userSpaceOnUse">
<stop stop-color="#FE7970"/>
<stop offset="1" stop-color="#DC3282"/>
</linearGradient>
<linearGradient id="paint1_linear_1012_671" x1="22.3799" y1="12.0001" x2="4.23102" y2="5.11696" gradientUnits="userSpaceOnUse">
<stop stop-color="#FE7970"/>
<stop offset="1" stop-color="#DC3282"/>
</linearGradient>
<linearGradient id="paint2_linear_1012_671" x1="22.3799" y1="12.0002" x2="4.23103" y2="5.11713" gradientUnits="userSpaceOnUse">
<stop stop-color="#FE7970"/>
<stop offset="1" stop-color="#DC3282"/>
</linearGradient>
<linearGradient id="paint3_linear_1012_671" x1="22.3799" y1="12.0001" x2="4.23102" y2="5.11696" gradientUnits="userSpaceOnUse">
<stop stop-color="#FE7970"/>
<stop offset="1" stop-color="#DC3282"/>
</linearGradient>
<linearGradient id="paint4_linear_1012_671" x1="22.3796" y1="12.0001" x2="4.23077" y2="5.11698" gradientUnits="userSpaceOnUse">
<stop stop-color="#FE7970"/>
<stop offset="1" stop-color="#DC3282"/>
</linearGradient>
</defs>
</svg>
