<svg width="25" height="24" viewBox="0 0 25 24" fill="none" xmlns="http://www.w3.org/2000/svg">
<path d="M20.0264 16.167H11.2597C11.0388 16.167 10.8597 16.3461 10.8597 16.567V17.8337C10.8597 18.0547 10.7719 18.2666 10.6157 18.4229C10.4594 18.5792 10.2474 18.667 10.0264 18.667C9.80536 18.667 9.5934 18.5792 9.43712 18.4229C9.28084 18.2666 9.19304 18.0547 9.19304 17.8337V16.567C9.19304 16.3461 9.01395 16.167 8.79304 16.167H7.92637C7.70546 16.167 7.52637 16.3461 7.52637 16.567V17.8337C7.52637 18.0547 7.43857 18.2666 7.28229 18.4229C7.12601 18.5792 6.91405 18.667 6.69304 18.667C6.47202 18.667 6.26006 18.5792 6.10378 18.4229C5.9475 18.2666 5.8597 18.0547 5.8597 17.8337V16.567C5.8597 16.3461 5.68062 16.167 5.4597 16.167H5.02637C4.36333 16.167 3.72744 16.4304 3.2586 16.8992C2.78976 17.3681 2.52637 18.004 2.52637 18.667C2.52637 19.33 2.78976 19.9659 3.2586 20.4348C3.72744 20.9036 4.36333 21.167 5.02637 21.167H20.0264C20.6894 21.167 21.3253 20.9036 21.7942 20.4348C22.263 19.9659 22.5264 19.33 22.5264 18.667C22.5264 18.004 22.263 17.3681 21.7942 16.8992C21.3253 16.4304 20.6894 16.167 20.0264 16.167Z" fill="url(#paint0_linear_1012_741)"/>
<path d="M20.0264 9.5H11.2597C11.0388 9.5 10.8597 9.67909 10.8597 9.9V11.1667C10.8597 11.3877 10.7719 11.5996 10.6157 11.7559C10.4594 11.9122 10.2474 12 10.0264 12C9.80536 12 9.5934 11.9122 9.43712 11.7559C9.28084 11.5996 9.19304 11.3877 9.19304 11.1667V9.9C9.19304 9.67909 9.01395 9.5 8.79304 9.5H7.92637C7.70546 9.5 7.52637 9.67909 7.52637 9.9V11.1667C7.52637 11.3877 7.43857 11.5996 7.28229 11.7559C7.12601 11.9122 6.91405 12 6.69304 12C6.47202 12 6.26006 11.9122 6.10378 11.7559C5.9475 11.5996 5.8597 11.3877 5.8597 11.1667V9.9C5.8597 9.67909 5.68062 9.5 5.4597 9.5H5.02637C4.36333 9.5 3.72744 9.76339 3.2586 10.2322C2.78976 10.7011 2.52637 11.337 2.52637 12C2.52637 12.663 2.78976 13.2989 3.2586 13.7678C3.72744 14.2366 4.36333 14.5 5.02637 14.5H20.0264C20.6894 14.5 21.3253 14.2366 21.7942 13.7678C22.263 13.2989 22.5264 12.663 22.5264 12C22.5264 11.337 22.263 10.7011 21.7942 10.2322C21.3253 9.76339 20.6894 9.5 20.0264 9.5Z" fill="url(#paint1_linear_1012_741)"/>
<path d="M20.0264 2.83301H11.2597C11.0388 2.83301 10.8597 3.01209 10.8597 3.23301V4.49967C10.8597 4.72069 10.7719 4.93265 10.6157 5.08893C10.4594 5.24521 10.2474 5.33301 10.0264 5.33301C9.80536 5.33301 9.5934 5.24521 9.43712 5.08893C9.28084 4.93265 9.19304 4.72069 9.19304 4.49967V3.23301C9.19304 3.01209 9.01395 2.83301 8.79304 2.83301H7.92637C7.70546 2.83301 7.52637 3.01209 7.52637 3.23301V4.49967C7.52637 4.72069 7.43857 4.93265 7.28229 5.08893C7.12601 5.24521 6.91405 5.33301 6.69304 5.33301C6.47202 5.33301 6.26006 5.24521 6.10378 5.08893C5.9475 4.93265 5.8597 4.72069 5.8597 4.49967V3.23301C5.8597 3.01209 5.68062 2.83301 5.4597 2.83301H5.02637C4.36333 2.83301 3.72744 3.0964 3.2586 3.56524C2.78976 4.03408 2.52637 4.66997 2.52637 5.33301C2.52637 5.99605 2.78976 6.63193 3.2586 7.10077C3.72744 7.56962 4.36333 7.83301 5.02637 7.83301H20.0264C20.6894 7.83301 21.3253 7.56962 21.7942 7.10077C22.263 6.63193 22.5264 5.99605 22.5264 5.33301C22.5264 4.66997 22.263 4.03408 21.7942 3.56524C21.3253 3.0964 20.6894 2.83301 20.0264 2.83301Z" fill="url(#paint2_linear_1012_741)"/>
<defs>
<linearGradient id="paint0_linear_1012_741" x1="12.5264" y1="21.167" x2="12.5264" y2="16.167" gradientUnits="userSpaceOnUse">
<stop stop-color="#5570FF"/>
<stop offset="1" stop-color="#4DD3FF"/>
</linearGradient>
<linearGradient id="paint1_linear_1012_741" x1="12.5264" y1="14.5" x2="12.5264" y2="9.5" gradientUnits="userSpaceOnUse">
<stop stop-color="#5570FF"/>
<stop offset="1" stop-color="#4DD3FF"/>
</linearGradient>
<linearGradient id="paint2_linear_1012_741" x1="12.5264" y1="7.83301" x2="12.5264" y2="2.83301" gradientUnits="userSpaceOnUse">
<stop stop-color="#5570FF"/>
<stop offset="1" stop-color="#4DD3FF"/>
</linearGradient>
</defs>
</svg>
