<svg width="24" height="24" viewBox="0 0 24 24" fill="none" xmlns="http://www.w3.org/2000/svg">
<path fill-rule="evenodd" clip-rule="evenodd" d="M11.9975 3.44444C9.72834 3.44444 7.55223 4.34583 5.94776 5.95031C4.34328 7.55479 3.44188 9.73096 3.44188 12C3.44188 14.269 4.34328 16.4452 5.94776 18.0498C7.55223 19.6542 9.72834 20.5556 11.9975 20.5556C12.3217 20.5556 12.6325 20.6843 12.8617 20.9135C13.0909 21.1428 13.2198 21.4536 13.2198 21.7778C13.2198 22.1019 13.0909 22.4129 12.8617 22.6421C12.6325 22.8713 12.3217 23 11.9975 23C9.65812 22.9994 7.37982 22.2532 5.49356 20.8695C3.60731 19.4856 2.21132 17.5366 1.50836 15.3053C0.805406 13.0741 0.832102 10.6769 1.58458 8.46183C2.33704 6.24677 3.77609 4.32929 5.69269 2.98792C7.60929 1.64654 9.9036 0.951117 12.2424 1.00267C14.5812 1.05421 16.8427 1.85005 18.6983 3.27459C20.554 4.69911 21.9072 6.67814 22.5613 8.92418C23.2153 11.1702 23.1364 13.5664 22.3359 15.7644C22.1261 16.3224 21.7858 16.8219 21.3435 17.2213L21.2131 17.3419C20.7632 17.757 20.2217 18.0602 19.6327 18.2267C19.0438 18.393 18.4236 18.4182 17.8232 18.2999C17.2226 18.1815 16.6584 17.9233 16.1765 17.5458C15.6946 17.1685 15.3085 16.6825 15.0498 16.1279C14.1212 16.8145 12.9882 17.1682 11.834 17.1313C10.6796 17.0945 9.57145 16.6696 8.68855 15.9252C7.80561 15.1807 7.19949 14.1603 6.96816 13.0289C6.73682 11.8973 6.89379 10.7209 7.41368 9.68962C7.93358 8.65844 8.78603 7.83264 9.83323 7.34574C10.8805 6.85885 12.0612 6.73931 13.1848 7.00645C14.3085 7.27359 15.3091 7.91178 16.0251 8.8179C16.7411 9.72399 17.1307 10.8452 17.1309 12V14.4836C17.1301 14.7647 17.2116 15.0399 17.3652 15.2754C17.5187 15.5108 17.7377 15.6963 17.9952 15.8092C18.2527 15.9221 18.5375 15.9572 18.8147 15.9105C19.0919 15.8637 19.3494 15.737 19.5558 15.5461L19.6861 15.4239C19.841 15.2889 19.9617 15.1191 20.0381 14.9284C20.509 13.6359 20.6612 12.2486 20.4818 10.8846C20.3024 9.52059 19.7968 8.21996 19.0078 7.09298C18.2187 5.966 17.1695 5.04592 15.9491 4.41078C14.7288 3.77563 13.3732 3.44414 11.9975 3.44444ZM11.9975 9.3111C12.3506 9.3111 12.7002 9.38073 13.0264 9.51585C13.3526 9.65096 13.6491 9.84903 13.8989 10.0987C14.1485 10.3484 14.3466 10.6447 14.4817 10.971C14.6168 11.2972 14.6864 11.647 14.6864 12C14.6864 12.3532 14.6168 12.7028 14.4817 13.029C14.3466 13.3553 14.1485 13.6517 13.8989 13.9013C13.6491 14.151 13.3526 14.349 13.0264 14.4843C12.7002 14.6194 12.3506 14.6889 11.9975 14.6889C11.2843 14.6889 10.6003 14.4056 10.0962 13.9013C9.5919 13.397 9.30864 12.7132 9.30864 12C9.30864 11.2868 9.5919 10.603 10.0962 10.0987C10.6003 9.59436 11.2843 9.3111 11.9975 9.3111Z" fill="url(#paint0_linear_1012_723)"/>
<defs>
<linearGradient id="paint0_linear_1012_723" x1="12" y1="23" x2="12" y2="0.999991" gradientUnits="userSpaceOnUse">
<stop stop-color="#00B59C"/>
<stop offset="1" stop-color="#9CFFAC"/>
</linearGradient>
</defs>
</svg>
