<svg width="24" height="24" viewBox="0 0 24 24" fill="none" xmlns="http://www.w3.org/2000/svg">
<g clip-path="url(#clip0_1012_705)">
<path d="M22 12C22 17.523 17.523 22 12 22C6.477 22 2 17.523 2 12C2 6.477 6.477 2 12 2C17.523 2 22 6.477 22 12Z" stroke="url(#paint0_linear_1012_705)" stroke-width="2.4"/>
<path d="M11.8191 6.9534C11.0103 6.9534 10.3539 7.60977 10.3539 8.41852C10.3539 8.67757 10.251 8.92601 10.0678 9.10919C9.88464 9.29237 9.6362 9.39527 9.37715 9.39527C9.1181 9.39527 8.86966 9.29237 8.68648 9.10919C8.5033 8.92601 8.40039 8.67757 8.40039 8.41852C8.40041 7.85844 8.53804 7.30693 8.80118 6.81251C9.06431 6.31808 9.4449 5.89588 9.90946 5.58303C10.3741 5.27018 10.9084 5.07627 11.4655 5.01834C12.0225 4.96041 12.5853 5.04023 13.1043 5.2508C13.6233 5.46137 14.0826 5.79623 14.4419 6.22593C14.8011 6.65564 15.0493 7.16702 15.1645 7.71512C15.2798 8.26322 15.2586 8.83124 15.1029 9.36924C14.9471 9.90723 14.6616 10.3987 14.2714 10.8005C14.1515 10.9242 14.0369 11.0388 13.9275 11.1482C13.663 11.4002 13.4146 11.6685 13.1839 11.9518C12.8974 12.319 12.7958 12.5886 12.7958 12.8139V13.7907C12.7958 14.0497 12.6929 14.2981 12.5097 14.4813C12.3265 14.6645 12.0781 14.7674 11.8191 14.7674C11.56 14.7674 11.3116 14.6645 11.1284 14.4813C10.9452 14.2981 10.8423 14.0497 10.8423 13.7907V12.8139C10.8423 11.9609 11.2395 11.2693 11.6419 10.7523C11.9402 10.3694 12.3139 9.99695 12.6187 9.69221C12.7099 9.60104 12.7958 9.51639 12.87 9.43955C13.0707 9.233 13.2061 8.97188 13.2593 8.68882C13.3124 8.40576 13.2809 8.11332 13.1688 7.84804C13.0566 7.58277 12.8688 7.35643 12.6287 7.19731C12.3887 7.03819 12.1071 6.95335 11.8191 6.9534ZM11.8191 19C12.1645 19 12.4957 18.8628 12.7399 18.6186C12.9842 18.3743 13.1214 18.0431 13.1214 17.6977C13.1214 17.3523 12.9842 17.021 12.7399 16.7768C12.4957 16.5325 12.1645 16.3953 11.8191 16.3953C11.4737 16.3953 11.1424 16.5325 10.8982 16.7768C10.6539 17.021 10.5167 17.3523 10.5167 17.6977C10.5167 18.0431 10.6539 18.3743 10.8982 18.6186C11.1424 18.8628 11.4737 19 11.8191 19Z" fill="url(#paint1_linear_1012_705)"/>
</g>
<defs>
<linearGradient id="paint0_linear_1012_705" x1="12" y1="2" x2="12" y2="22" gradientUnits="userSpaceOnUse">
<stop stop-color="#DC18FC"/>
<stop offset="1" stop-color="#8E1EFF"/>
</linearGradient>
<linearGradient id="paint1_linear_1012_705" x1="11.8191" y1="5" x2="11.8191" y2="19" gradientUnits="userSpaceOnUse">
<stop stop-color="#DC18FC"/>
<stop offset="1" stop-color="#8E1EFF"/>
</linearGradient>
<clipPath id="clip0_1012_705">
<rect width="24" height="24" fill="white"/>
</clipPath>
</defs>
</svg>
