<svg width="64" height="65" viewBox="0 0 64 65" fill="none" xmlns="http://www.w3.org/2000/svg">
<path d="M46.3354 13.5805C45.5441 13.5663 44.7812 13.8755 44.223 14.4365L42.8919 15.7746L42.9179 15.8004L30.9333 27.7849C30.0821 28.6361 30.0821 30.0162 30.9333 30.8672L37.3209 37.255C38.1721 38.1062 39.552 38.1062 40.4032 37.255L52.4206 25.2376L52.4231 25.2399L60.3364 17.5472C61.7258 16.1965 60.7936 13.8399 58.8561 13.8052L46.3354 13.5805Z" fill="url(#paint0_linear_1012_599)"/>
<path d="M17.6653 27.1069C18.4565 27.0927 19.2195 27.4017 19.7776 27.9629L21.1087 29.3009L21.0829 29.3267L33.0674 41.3113C33.9186 42.1625 33.9186 43.5424 33.0674 44.3936L26.6797 50.7813C25.8286 51.6325 24.4485 51.6325 23.5973 50.7813L11.58 38.7639L11.5776 38.7663L3.66437 31.0736C2.27497 29.7228 3.20709 27.3663 5.14444 27.3316L17.6653 27.1069Z" fill="url(#paint1_linear_1012_599)"/>
<defs>
<linearGradient id="paint0_linear_1012_599" x1="38.8424" y1="38.6897" x2="10.3319" y2="11.3817" gradientUnits="userSpaceOnUse">
<stop stop-color="#2AD454"/>
<stop offset="1" stop-color="#B3FF5A"/>
</linearGradient>
<linearGradient id="paint1_linear_1012_599" x1="38.8416" y1="38.6896" x2="10.3312" y2="11.3815" gradientUnits="userSpaceOnUse">
<stop stop-color="#2AD454"/>
<stop offset="1" stop-color="#B3FF5A"/>
</linearGradient>
</defs>
</svg>
