<svg width="24" height="24" viewBox="0 0 24 24" fill="none" xmlns="http://www.w3.org/2000/svg">
<path d="M13.3772 23C16.0503 23 18.3225 22.0644 20.1937 20.1932C22.0649 18.322 23.0005 16.0498 23.0005 13.3767C23.0005 12.0401 22.7464 10.788 22.2381 9.62036C21.7299 8.45273 21.0395 7.43694 20.167 6.57297C19.2938 5.70901 18.2733 5.02326 17.1057 4.51572C15.9381 4.00818 14.6863 3.75405 13.3505 3.75334C13.2814 3.75334 13.2468 3.66985 13.2957 3.62103L14.1257 2.79101C14.2326 2.68408 14.3085 2.56825 14.3534 2.4435C14.3983 2.31875 14.4204 2.18509 14.4197 2.04253C14.4197 1.89996 14.3973 1.7663 14.3524 1.64156C14.3075 1.51681 14.2319 1.40097 14.1257 1.29405C13.9296 1.09802 13.6802 1 13.3772 1C13.0742 1 12.8247 1.09802 12.6287 1.29405L9.84863 4.07412C9.74171 4.18104 9.66615 4.29688 9.62195 4.42163C9.57775 4.54637 9.5553 4.68003 9.55459 4.8226C9.55459 4.96517 9.57704 5.09882 9.62195 5.22357C9.66686 5.34832 9.74242 5.46415 9.84863 5.57108L12.6287 8.35115C12.8247 8.54718 13.0742 8.6452 13.3772 8.6452C13.6802 8.6452 13.9296 8.54718 14.1257 8.35115C14.2326 8.24423 14.3082 8.12839 14.3524 8.00364C14.3966 7.8789 14.419 7.74524 14.4197 7.60267C14.4197 7.4601 14.3973 7.32645 14.3524 7.2017C14.3075 7.07695 14.2319 6.96112 14.1257 6.85419L13.2957 6.02417C13.2468 5.97534 13.2814 5.89186 13.3505 5.89186C15.4177 5.89186 17.1863 6.62252 18.6561 8.08384C20.126 9.54516 20.8613 11.3094 20.862 13.3767C20.862 15.4439 20.1313 17.2082 18.67 18.6695C17.2087 20.1308 15.4444 20.8615 13.3772 20.8615C12.8604 20.8615 12.3568 20.8123 11.8663 20.7139C11.3759 20.6155 10.8994 20.4687 10.4367 20.2734C10.2407 20.1843 10.04 20.1575 9.83473 20.1932C9.62944 20.2288 9.45586 20.3179 9.314 20.4605C9.01105 20.7635 8.8863 21.0931 8.93976 21.4496C8.99323 21.806 9.20708 22.0644 9.58132 22.2248C10.1694 22.4743 10.78 22.666 11.413 22.8C12.046 22.9341 12.7007 23.0007 13.3772 23Z" fill="url(#paint0_linear_1012_679)"/>
<path d="M7.36211 19.2704C7.23736 19.3153 7.10371 19.3378 6.96114 19.3378C6.81857 19.3385 6.68491 19.3164 6.56017 19.2715C6.43542 19.2266 6.31958 19.1506 6.21266 19.0437L1.29407 14.1251C1.18786 14.0182 1.11229 13.9024 1.06739 13.7776C1.02248 13.6529 1.00002 13.5192 1.00002 13.3766C0.999305 13.2341 1.02141 13.1004 1.06632 12.9757C1.11122 12.8509 1.18714 12.7351 1.29407 12.6282L6.21266 7.70957C6.31958 7.60336 6.43542 7.5278 6.56017 7.48289C6.68491 7.43798 6.81857 7.41553 6.96114 7.41553C7.10371 7.41624 7.23736 7.43869 7.36211 7.48289C7.48686 7.52709 7.60269 7.60265 7.70962 7.70957L12.6282 12.6282C12.7344 12.7351 12.81 12.8509 12.8549 12.9757C12.8998 13.1004 12.9223 13.2341 12.9223 13.3766C12.9216 13.5192 12.8991 13.6529 12.8549 13.7776C12.8107 13.9024 12.7351 14.0182 12.6282 14.1251L7.70962 19.0437C7.60269 19.1499 7.48686 19.2255 7.36211 19.2704Z" fill="url(#paint1_linear_1012_679)"/>
<defs>
<linearGradient id="paint0_linear_1012_679" x1="20.3619" y1="3.49219" x2="7.40426" y2="12.3454" gradientUnits="userSpaceOnUse">
<stop stop-color="#8F0CFF"/>
<stop offset="0.516064" stop-color="#AA1DFF"/>
<stop offset="1" stop-color="#B826FF"/>
</linearGradient>
<linearGradient id="paint1_linear_1012_679" x1="10.6868" y1="8.76609" x2="3.16557" y2="16.7996" gradientUnits="userSpaceOnUse">
<stop stop-color="#8F0CFF"/>
<stop offset="0.516064" stop-color="#AA1DFF"/>
<stop offset="1" stop-color="#B826FF"/>
</linearGradient>
</defs>
</svg>
