<svg width="64" height="64" viewBox="0 0 64 64" fill="none" xmlns="http://www.w3.org/2000/svg">
<path d="M45.3348 12C47.0275 11.9997 48.6568 12.6433 49.8924 13.8002C51.128 14.957 51.8773 16.5405 51.9883 18.2296L52.0017 18.6668V42.7837C52.0017 43.4561 52.5468 44.0011 53.2191 44.0011H56.0018C57.0291 44.0016 58.0169 44.3974 58.7603 45.1063C59.5038 45.8152 59.9461 46.783 59.9954 47.809C60.0448 48.8351 59.6975 49.8408 59.0255 50.6179C58.3535 51.3949 57.4083 51.8836 56.3858 51.9827L56.0018 52.0014H53.2191C52.5468 52.0014 52.0017 52.5465 52.0017 53.2188V56.0016C52.0011 57.0288 51.6055 58.0166 50.8966 58.76C50.1877 59.5035 49.2199 59.9458 48.1937 59.9951C47.1677 60.0445 46.1619 59.6972 45.385 59.0252C44.6079 58.3532 44.1192 57.408 44.02 56.3855L44.0014 56.0016V21.2176C44.0014 20.5453 43.4564 20.0003 42.784 20.0003H26.5514C25.8791 20.0003 25.334 19.4552 25.334 18.7829V13.2174C25.334 12.5451 25.8791 12 26.5514 12H45.3348Z" fill="#FC5185"/>
<path d="M18.8289 5.17162C18.0788 4.42144 17.0613 4 16.0004 4C14.9395 4 13.9221 4.42144 13.1719 5.17162C12.4217 5.92177 12.0003 6.93927 12.0003 8.0001V10.7829C12.0003 11.4552 11.4552 12.0003 10.7829 12.0003H8.0001C6.93927 12.0003 5.92177 12.4217 5.17162 13.1719C4.42144 13.9221 4 14.9395 4 16.0004C4 17.0613 4.42144 18.0788 5.17162 18.8289C5.92177 19.5791 6.93927 20.0005 8.0001 20.0005H10.7829C11.4552 20.0005 12.0003 20.5456 12.0003 21.2179V45.3348C12.0003 47.1029 12.7026 48.7987 13.953 50.049C15.2033 51.2993 16.899 52.0017 18.6671 52.0017H37.4505C38.1229 52.0017 38.6679 51.4566 38.6679 50.7843V45.2188C38.6679 44.5464 38.1229 44.0014 37.4505 44.0014H21.2179C20.5456 44.0014 20.0005 43.4564 20.0005 42.784V8.0001C20.0005 6.93927 19.5791 5.92177 18.8289 5.17162Z" fill="#FC5185"/>
</svg>
