<svg width="128" height="128" viewBox="0 0 128 128" fill="none" xmlns="http://www.w3.org/2000/svg">
<path d="M67.4444 33H119.341C121.244 33 122.785 34.5407 122.785 36.4445V91.5558C122.785 93.46 121.244 95 119.341 95H8.65923C6.75543 95 5.21484 93.46 5.21484 91.5558V36.4445C5.21484 34.5407 6.75543 33 8.65923 33H60.5555H67.4444Z" stroke="url(#paint0_linear_1012_708)" stroke-width="10"/>
<path fill-rule="evenodd" clip-rule="evenodd" d="M21.1094 44.6289C18.3071 44.6289 16.0352 46.9002 16.0352 49.7032C16.0352 52.5053 18.307 54.7773 21.1094 54.7773C23.9117 54.7773 26.1835 52.5055 26.1835 49.7032C26.1835 46.9002 23.9116 44.6289 21.1094 44.6289ZM35.4063 44.6289C32.604 44.6289 30.3321 46.9002 30.3321 49.7032C30.3321 52.5053 32.6039 54.7773 35.4063 54.7773C38.2085 54.7773 40.4804 52.5056 40.4804 49.7032C40.4804 46.9002 38.2084 44.6289 35.4063 44.6289ZM49.7031 44.6289C46.9008 44.6289 44.629 46.9002 44.629 49.7032C44.629 52.5053 46.9007 54.7773 49.7031 54.7773C52.5053 54.7773 54.7773 52.5056 54.7773 49.7032C54.7773 46.9002 52.5053 44.6289 49.7031 44.6289ZM64 44.6289C61.1977 44.6289 58.9258 46.9002 58.9258 49.7032C58.9258 52.5053 61.1976 54.7773 64 54.7773C66.8022 54.7773 69.0742 52.5056 69.0742 49.7032C69.0742 46.9002 66.8022 44.6289 64 44.6289ZM78.2969 44.6289C75.4946 44.6289 73.2227 46.9002 73.2227 49.7032C73.2227 52.5053 75.4945 54.7773 78.2969 54.7773C81.0992 54.7773 83.371 52.5055 83.371 49.7032C83.371 46.9002 81.0991 44.6289 78.2969 44.6289ZM92.5938 44.6289C89.7915 44.6289 87.5196 46.9002 87.5196 49.7032C87.5196 52.5053 89.7914 54.7773 92.5938 54.7773C95.396 54.7773 97.6679 52.5056 97.6679 49.7032C97.6679 46.9002 95.3959 44.6289 92.5938 44.6289ZM106.891 44.6289C104.086 44.6289 101.817 46.8993 101.817 49.7032V55.9258C101.817 57.5827 100.474 58.9258 98.817 58.9258H92.5938C89.7896 58.9258 87.5196 61.196 87.5196 64.0001C87.5196 66.804 89.7896 69.0742 92.5938 69.0742H106.891C109.696 69.0742 111.965 66.8038 111.965 64.0001V49.7032C111.965 46.8993 109.696 44.6289 106.891 44.6289ZM21.1094 58.9258C18.3071 58.9258 16.0352 61.1971 16.0352 64.0001C16.0352 66.8021 18.307 69.0742 21.1094 69.0742C23.9117 69.0742 26.1835 66.8023 26.1835 64.0001C26.1835 61.1971 23.9116 58.9258 21.1094 58.9258ZM35.4063 58.9258C32.604 58.9258 30.3321 61.1971 30.3321 64.0001C30.3321 66.8021 32.6039 69.0742 35.4063 69.0742C38.2085 69.0742 40.4804 66.8023 40.4804 64.0001C40.4804 61.1971 38.2084 58.9258 35.4063 58.9258ZM49.7031 58.9258C46.9008 58.9258 44.629 61.1971 44.629 64.0001C44.629 66.802 46.9006 69.0742 49.7031 69.0742C52.5054 69.0742 54.7773 66.8024 54.7773 64.0001C54.7773 61.1971 52.5053 58.9258 49.7031 58.9258ZM64 58.9258C61.1977 58.9258 58.9258 61.1971 58.9258 64.0001C58.9258 66.8021 61.1976 69.0742 64 69.0742C66.8023 69.0742 69.0742 66.8024 69.0742 64.0001C69.0742 61.1971 66.8022 58.9258 64 58.9258ZM78.2969 58.9258C75.4946 58.9258 73.2227 61.1971 73.2227 64.0001C73.2227 66.8021 75.4945 69.0742 78.2969 69.0742C81.0992 69.0742 83.371 66.8023 83.371 64.0001C83.371 61.1971 81.0991 58.9258 78.2969 58.9258ZM21.1094 73.2227C18.3072 73.2227 16.0352 75.4939 16.0352 78.2969C16.0352 81.0995 18.3071 83.371 21.1094 83.371C23.9116 83.371 26.1835 81.0995 26.1835 78.2969C26.1835 75.494 23.9116 73.2227 21.1094 73.2227ZM35.4063 73.2227C32.6021 73.2227 30.3321 75.4929 30.3321 78.2969C30.3321 81.1003 32.602 83.371 35.4063 83.371H78.2969C81.101 83.371 83.371 81.1003 83.371 78.2969C83.371 75.4929 81.1009 73.2227 78.2969 73.2227H35.4063ZM92.5938 73.2227C89.7916 73.2227 87.5196 75.4939 87.5196 78.2969C87.5196 81.0995 89.7915 83.371 92.5938 83.371C95.3959 83.371 97.6679 81.0995 97.6679 78.2969C97.6679 75.494 95.3959 73.2227 92.5938 73.2227ZM106.891 73.2227C104.089 73.2227 101.817 75.4941 101.817 78.2969C101.817 81.0994 104.088 83.371 106.891 83.371C109.692 83.371 111.965 81.0997 111.965 78.2969C111.965 75.4938 109.692 73.2227 106.891 73.2227Z" fill="url(#paint1_linear_1012_708)"/>
<defs>
<linearGradient id="paint0_linear_1012_708" x1="56.6518" y1="71.9747" x2="64" y2="14.2392" gradientUnits="userSpaceOnUse">
<stop stop-color="#9000FF"/>
<stop offset="1" stop-color="#FF81FF"/>
</linearGradient>
<linearGradient id="paint1_linear_1012_708" x1="56.375" y1="72.2752" x2="64" y2="12.3644" gradientUnits="userSpaceOnUse">
<stop stop-color="#9000FF"/>
<stop offset="1" stop-color="#FF81FF"/>
</linearGradient>
</defs>
</svg>
