<svg width="16" height="16" viewBox="0 0 16 16" fill="none" xmlns="http://www.w3.org/2000/svg">
<path d="M6.82997 1C5.54101 1 4.49702 2.044 4.49702 3.33295V5.83238C4.49702 6.38467 4.0493 6.83238 3.49702 6.83238H2.7473C2.42519 6.83238 2.16406 7.09351 2.16406 7.41562C2.16406 7.73774 2.42519 7.99886 2.7473 7.99886H3.49702C4.0493 7.99886 4.49702 8.44658 4.49702 8.99886V14.4145C4.49702 14.7366 4.75814 14.9977 5.08026 14.9977C5.40237 14.9977 5.6635 14.7366 5.6635 14.4145V8.99886C5.6635 8.44658 6.11121 7.99886 6.6635 7.99886H7.41321C7.73532 7.99886 7.99645 7.73774 7.99645 7.41562C7.99645 7.09351 7.73532 6.83238 7.41321 6.83238H6.66349C6.11121 6.83238 5.6635 6.38467 5.6635 5.83238V3.33295C5.6635 2.68906 6.18608 2.16648 6.82997 2.16648H8.57969C8.9018 2.16648 9.16293 1.90535 9.16293 1.58324C9.16293 1.26112 8.9018 1 8.57969 1H7.99645H6.82997Z" fill="url(#paint0_linear_1012_613)" stroke="url(#paint1_linear_1012_613)"/>
<path d="M13.7769 10.1102C13.3539 9.68723 12.6681 9.68723 12.2451 10.1102L11.7151 10.6402C11.5198 10.8355 11.2033 10.8355 11.008 10.6402L10.478 10.1102C10.055 9.68723 9.36917 9.68723 8.94616 10.1102C8.52315 10.5333 8.52315 11.2191 8.94616 11.6421L9.47616 12.1721C9.67142 12.3673 9.67142 12.6839 9.47616 12.8792L8.94616 13.4092C8.52316 13.8322 8.52315 14.518 8.94616 14.941C9.36917 15.364 10.055 15.364 10.478 14.941L11.008 14.411C11.2033 14.2158 11.5198 14.2158 11.7151 14.411L12.2451 14.941C12.6681 15.364 13.3539 15.364 13.7769 14.941C14.2 14.518 14.2 13.8322 13.7769 13.4092L13.2469 12.8792C13.0517 12.6839 13.0517 12.3673 13.2469 12.1721L13.7769 11.6421C14.2 11.2191 14.2 10.5333 13.7769 10.1102Z" fill="url(#paint2_linear_1012_613)"/>
<defs>
<linearGradient id="paint0_linear_1012_613" x1="5.66349" y1="14.9977" x2="5.66349" y2="1" gradientUnits="userSpaceOnUse">
<stop stop-color="#A93AFF"/>
<stop offset="1" stop-color="#FF81FF"/>
</linearGradient>
<linearGradient id="paint1_linear_1012_613" x1="5.66349" y1="14.9977" x2="5.66349" y2="1" gradientUnits="userSpaceOnUse">
<stop stop-color="#A93AFF"/>
<stop offset="1" stop-color="#FF81FF"/>
</linearGradient>
<linearGradient id="paint2_linear_1012_613" x1="11.3616" y1="15.2583" x2="11.3616" y2="9.79298" gradientUnits="userSpaceOnUse">
<stop stop-color="#A93AFF"/>
<stop offset="1" stop-color="#FF81FF"/>
</linearGradient>
</defs>
</svg>
