<svg width="24" height="24" viewBox="0 0 24 24" fill="none" xmlns="http://www.w3.org/2000/svg">
<g clip-path="url(#clip0_1012_702)">
<path d="M1 15.9776C1 16.9093 1.7502 17.6595 3.2495 19.1588L4.8412 20.7505C6.3405 22.2498 7.0907 23 8.0224 23C8.9541 23 9.7054 22.2498 11.2047 20.7505L20.7505 11.2047C22.2498 9.7043 23 8.953 23 8.0224C23 7.0918 22.2498 6.3405 20.7505 4.8412L19.1588 3.2495C17.6595 1.7502 16.9093 1 15.9776 1C15.1482 1 14.464 1.594 13.2672 2.7798L12.1122 3.9326L10.933 5.1129L9.778 6.2657L8.601 7.446L7.446 8.5999L6.2668 9.778L5.114 10.933L3.9337 12.1133L2.7809 13.2672C1.5929 14.464 1 15.1482 1 15.9776Z" stroke="url(#paint0_linear_1012_702)" stroke-width="2"/>
<path d="M15.1013 1.30417C15.0631 1.26652 15.0222 1.23176 14.9789 1.2002L13.4849 2.69277C13.5162 2.7355 13.5518 2.7768 13.5902 2.81526L15.6041 4.82909C15.8066 5.01777 16.0744 5.12049 16.3511 5.11561C16.6278 5.11072 16.8919 4.99862 17.0876 4.80292C17.2833 4.60721 17.3954 4.34318 17.4003 4.06646C17.4051 3.78973 17.3024 3.52191 17.1137 3.31943L15.1028 1.30275L15.1013 1.30417ZM12.0792 4.32635C12.041 4.28821 12.0001 4.25298 11.9567 4.22095L10.4641 5.71353C10.4957 5.7573 10.5309 5.79828 10.5695 5.83601L13.5902 8.85818C13.7918 9.05266 14.0617 9.1602 14.3417 9.15764C14.6218 9.15507 14.8897 9.04261 15.0876 8.84447C15.2856 8.64633 15.3978 8.37837 15.4001 8.0983C15.4024 7.81823 15.2946 7.54846 15.0999 7.3471L12.0792 4.32635ZM9.05838 7.3471C9.02025 7.30895 8.9793 7.27372 8.93589 7.2417L7.4419 8.73428C7.47323 8.777 7.50883 8.81973 7.54729 8.85818L9.56255 10.872C9.66034 10.977 9.77826 11.0611 9.90929 11.1195C10.0403 11.1779 10.1818 11.2093 10.3252 11.2118C10.4686 11.2144 10.6111 11.188 10.7441 11.1343C10.8771 11.0805 10.9979 11.0006 11.0994 10.8991C11.2008 10.7977 11.2807 10.6769 11.3345 10.5439C11.3882 10.4109 11.4146 10.2684 11.412 10.125C11.4095 9.98156 11.3781 9.84012 11.3197 9.70909C11.2614 9.57807 11.1772 9.46013 11.0722 9.36234L9.05838 7.3471ZM6.03762 10.3679C5.99949 10.3297 5.95855 10.2945 5.91514 10.2625L4.42115 11.7565C4.45248 11.7992 4.48808 11.8405 4.52654 11.8789L7.54729 14.8997C7.64577 15.0018 7.7636 15.0832 7.89389 15.1392C8.02419 15.1953 8.16434 15.2248 8.30616 15.2261C8.44799 15.2274 8.58866 15.2004 8.71996 15.1468C8.85125 15.0932 8.97055 15.0139 9.07089 14.9136C9.17123 14.8134 9.2506 14.6942 9.30437 14.5629C9.35814 14.4317 9.38523 14.291 9.38407 14.1492C9.3829 14.0074 9.3535 13.8672 9.29758 13.7369C9.24167 13.6065 9.16035 13.4886 9.05838 13.39L6.03762 10.3679ZM3.01545 13.39C2.97739 13.3514 2.93644 13.3157 2.89297 13.2832L1.40039 14.7786C1.43173 14.8214 1.46733 14.8612 1.50579 14.8997L3.51962 16.9135C3.61741 17.0185 3.73533 17.1026 3.86636 17.161C3.99739 17.2194 4.13883 17.2508 4.28225 17.2533C4.42568 17.2559 4.56814 17.2295 4.70114 17.1758C4.83415 17.122 4.95497 17.0421 5.0564 16.9406C5.15783 16.8392 5.23779 16.7184 5.29151 16.5854C5.34524 16.4524 5.37162 16.3099 5.36909 16.1665C5.36656 16.0231 5.33517 15.8816 5.27678 15.7506C5.2184 15.6196 5.13423 15.5017 5.02928 15.4039L3.01545 13.39Z" fill="url(#paint1_linear_1012_702)"/>
</g>
<defs>
<linearGradient id="paint0_linear_1012_702" x1="22.9348" y1="1.13947" x2="1.10885" y2="22.7838" gradientUnits="userSpaceOnUse">
<stop stop-color="#FE7970"/>
<stop offset="1" stop-color="#DC3282"/>
</linearGradient>
<linearGradient id="paint1_linear_1012_702" x1="17.353" y1="1.30196" x2="1.42722" y2="17.0428" gradientUnits="userSpaceOnUse">
<stop stop-color="#FE7970"/>
<stop offset="1" stop-color="#DC3282"/>
</linearGradient>
<clipPath id="clip0_1012_702">
<rect width="24" height="24" fill="white"/>
</clipPath>
</defs>
</svg>
