<svg width="16" height="17" viewBox="0 0 16 17" fill="none" xmlns="http://www.w3.org/2000/svg">
<path d="M11.64 9.48014C11.3763 9.28237 11 9.47052 11 9.80014V10.6001C11 10.821 10.8209 11.0001 10.6 11.0001H1.4C1.17909 11.0001 1 11.1792 1 11.4001V12.6001C1 12.821 1.17909 13.0001 1.4 13.0001H10.6C10.8209 13.0001 11 13.1792 11 13.4001V14.2001C11 14.5297 11.3763 14.7179 11.64 14.5201L14.5733 12.3201C14.7867 12.1601 14.7867 11.8401 14.5733 11.6801L11.64 9.48014Z" fill="url(#paint0_linear_1012_620)"/>
<path d="M11 3.60014V2.80014C11 2.47052 11.3763 2.28237 11.64 2.48014L14.5733 4.68014C14.7867 4.84014 14.7867 5.16014 14.5733 5.32014L11.64 7.52014C11.3763 7.71791 11 7.52976 11 7.20014V6.40014C11 6.17923 10.8209 6.00014 10.6 6.00014H1.4C1.17909 6.00014 1 5.82105 1 5.60014V4.40014C1 4.17923 1.17909 4.00014 1.4 4.00014H10.6C10.8209 4.00014 11 3.82105 11 3.60014Z" fill="url(#paint1_linear_1012_620)"/>
<defs>
<linearGradient id="paint0_linear_1012_620" x1="8" y1="15.0001" x2="8" y2="9.00014" gradientUnits="userSpaceOnUse">
<stop stop-color="#02AA93"/>
<stop offset="1" stop-color="#67FF80"/>
</linearGradient>
<linearGradient id="paint1_linear_1012_620" x1="8" y1="8.00014" x2="8" y2="2.00014" gradientUnits="userSpaceOnUse">
<stop stop-color="#02AA93"/>
<stop offset="1" stop-color="#67FF80"/>
</linearGradient>
</defs>
</svg>
