<svg width="16" height="18" viewBox="0 0 16 18" fill="none" xmlns="http://www.w3.org/2000/svg">
<path d="M8.61704 10.6669H4.90037C4.84514 10.6669 4.80037 10.6221 4.80037 10.5669V9.96436C4.80037 9.40527 4.17727 9.0718 3.71208 9.38193L1.33319 10.9678C0.917581 11.2449 0.917582 11.8556 1.33319 12.1327L3.71208 13.7186C4.17727 14.0287 4.80037 13.6953 4.80037 13.1362V12.5336C4.80037 12.4784 4.84514 12.4336 4.90037 12.4336H8.61704C9.10489 12.4336 9.50037 12.0381 9.50037 11.5502C9.50037 11.0624 9.10489 10.6669 8.61704 10.6669Z" fill="url(#paint0_linear_1012_623)"/>
<path d="M11.5004 4.73374V4.13114C11.5004 3.81167 11.8565 3.62111 12.1223 3.79832L14.5012 5.38425C14.7387 5.54258 14.7387 5.89156 14.5012 6.04989L12.1223 7.63582C11.8565 7.81303 11.5004 7.62247 11.5004 7.303V6.7004C11.5004 6.47949 11.3213 6.3004 11.1004 6.3004H4.50044C3.34362 6.3004 2.38861 7.13384 2.20067 8.23547C2.16352 8.45324 1.98802 8.63374 1.76711 8.63374H1.40044C1.17953 8.63374 0.998048 8.45391 1.02277 8.23438C1.21978 6.48481 2.69653 5.13374 4.50044 5.13374H11.1004C11.3213 5.13374 11.5004 4.95465 11.5004 4.73374Z" fill="url(#paint1_linear_1012_623)" stroke="url(#paint2_linear_1012_623)" stroke-width="0.6"/>
<path d="M10.042 9.23721C10.042 8.90584 10.3107 8.63721 10.642 8.63721H14.4003C14.7317 8.63721 15.0003 8.90584 15.0003 9.23721V9.29521C15.0003 9.62658 14.7317 9.89521 14.4003 9.89521H10.642C10.3107 9.89521 10.042 9.62658 10.042 9.29521V9.23721Z" fill="url(#paint3_linear_1012_623)"/>
<path d="M10.042 11.2084C10.042 10.877 10.3107 10.6084 10.642 10.6084H14.4003C14.7317 10.6084 15.0003 10.877 15.0003 11.2084V11.2664C15.0003 11.5977 14.7317 11.8664 14.4003 11.8664H10.642C10.3107 11.8664 10.042 11.5977 10.042 11.2664V11.2084Z" fill="url(#paint4_linear_1012_623)"/>
<path d="M10.042 13.1796C10.042 12.8482 10.3107 12.5796 10.642 12.5796H14.4003C14.7317 12.5796 15.0003 12.8482 15.0003 13.1796V13.2376C15.0003 13.5689 14.7317 13.8376 14.4003 13.8376H10.642C10.3107 13.8376 10.042 13.5689 10.042 13.2376V13.1796Z" fill="url(#paint5_linear_1012_623)"/>
<defs>
<linearGradient id="paint0_linear_1012_623" x1="2.55828" y1="13.2973" x2="6.28274" y2="7.27371" gradientUnits="userSpaceOnUse">
<stop stop-color="#FE0844"/>
<stop offset="1" stop-color="#FEB302"/>
</linearGradient>
<linearGradient id="paint1_linear_1012_623" x1="3.53794" y1="8.01395" x2="7.00489" y2="-0.0526722" gradientUnits="userSpaceOnUse">
<stop stop-color="#FE0844"/>
<stop offset="1" stop-color="#FEB302"/>
</linearGradient>
<linearGradient id="paint2_linear_1012_623" x1="3.53794" y1="8.01395" x2="7.00489" y2="-0.0526722" gradientUnits="userSpaceOnUse">
<stop stop-color="#FE0844"/>
<stop offset="1" stop-color="#FEB302"/>
</linearGradient>
<linearGradient id="paint3_linear_1012_623" x1="10.9407" y1="13.2236" x2="15.5949" y2="9.35192" gradientUnits="userSpaceOnUse">
<stop stop-color="#FE0844"/>
<stop offset="1" stop-color="#FEB302"/>
</linearGradient>
<linearGradient id="paint4_linear_1012_623" x1="10.9407" y1="13.2234" x2="15.5949" y2="9.35169" gradientUnits="userSpaceOnUse">
<stop stop-color="#FE0844"/>
<stop offset="1" stop-color="#FEB302"/>
</linearGradient>
<linearGradient id="paint5_linear_1012_623" x1="10.9407" y1="13.2236" x2="15.5949" y2="9.35188" gradientUnits="userSpaceOnUse">
<stop stop-color="#FE0844"/>
<stop offset="1" stop-color="#FEB302"/>
</linearGradient>
</defs>
</svg>
