<svg width="16" height="17" viewBox="0 0 16 17" fill="none" xmlns="http://www.w3.org/2000/svg">
<path d="M10.6171 10.5331H4.90037C4.84514 10.5331 4.80037 10.4884 4.80037 10.4332V9.83057C4.80037 9.27149 4.17727 8.93801 3.71208 9.24814L1.33319 10.834C0.917581 11.1111 0.917582 11.7218 1.33319 11.9989L3.71208 13.5848C4.17727 13.895 4.80037 13.5615 4.80037 13.0024V12.3998C4.80037 12.3446 4.84514 12.2998 4.90037 12.2998H10.6171C11.1049 12.2998 11.5004 11.9043 11.5004 11.4165C11.5004 10.9286 11.1049 10.5331 10.6171 10.5331Z" fill="url(#paint0_linear_1012_633)"/>
<path d="M11.5004 4.59994V3.99735C11.5004 3.67787 11.8565 3.48731 12.1223 3.66453L14.5012 5.25046C14.7387 5.40879 14.7387 5.75777 14.5012 5.9161L12.1223 7.50202C11.8565 7.67923 11.5004 7.48868 11.5004 7.1692V6.56661C11.5004 6.34569 11.3213 6.16661 11.1004 6.16661H4.50044C3.34362 6.16661 2.38861 7.00004 2.20067 8.10167C2.16352 8.31944 1.98802 8.49994 1.76711 8.49994H1.40044C1.17953 8.49994 0.998048 8.32011 1.02277 8.10058C1.21978 6.35101 2.69653 4.99994 4.50044 4.99994H11.1004C11.3213 4.99994 11.5004 4.82085 11.5004 4.59994Z" fill="url(#paint1_linear_1012_633)" stroke="url(#paint2_linear_1012_633)" stroke-width="0.6"/>
<path d="M11.5436 8.37061C11.3227 8.37061 11.1436 8.5497 11.1436 8.77061V13.3039C11.1436 13.5248 11.3227 13.7039 11.5436 13.7039H12.0769C12.2979 13.7039 12.4769 13.5248 12.4769 13.3039V12.7706C12.4769 12.5497 12.656 12.3706 12.8769 12.3706H13.4103C13.6312 12.3706 13.8103 12.5497 13.8103 12.7706V13.3039C13.8103 13.5248 13.9894 13.7039 14.2103 13.7039H14.7436C14.9645 13.7039 15.1436 13.5248 15.1436 13.3039V8.77061C15.1436 8.5497 14.9645 8.37061 14.7436 8.37061H11.5436ZM12.4769 10.1039C12.4769 9.88303 12.656 9.70395 12.8769 9.70395H13.4103C13.6312 9.70395 13.8103 9.88303 13.8103 10.1039V10.6372C13.8103 10.8582 13.6312 11.0373 13.4103 11.0373H12.8769C12.656 11.0373 12.4769 10.8582 12.4769 10.6373V10.1039Z" fill="url(#paint3_linear_1012_633)"/>
<defs>
<linearGradient id="paint0_linear_1012_633" x1="0.87002" y1="9.17441" x2="4.25859" y2="17.1746" gradientUnits="userSpaceOnUse">
<stop stop-color="#F9D423"/>
<stop offset="0.515624" stop-color="#FF4E50"/>
<stop offset="0.991304" stop-color="#8A2387"/>
</linearGradient>
<linearGradient id="paint1_linear_1012_633" x1="0.798078" y1="3.3016" x2="4.27787" y2="12.8649" gradientUnits="userSpaceOnUse">
<stop stop-color="#F9D423"/>
<stop offset="0.515624" stop-color="#FF4E50"/>
<stop offset="0.991304" stop-color="#8A2387"/>
</linearGradient>
<linearGradient id="paint2_linear_1012_633" x1="0.798078" y1="3.3016" x2="4.27787" y2="12.8649" gradientUnits="userSpaceOnUse">
<stop stop-color="#F9D423"/>
<stop offset="0.515624" stop-color="#FF4E50"/>
<stop offset="0.991304" stop-color="#8A2387"/>
</linearGradient>
<linearGradient id="paint3_linear_1012_633" x1="11.0858" y1="8.42309" x2="16.409" y2="12.5376" gradientUnits="userSpaceOnUse">
<stop stop-color="#F9D423"/>
<stop offset="0.515624" stop-color="#FF4E50"/>
<stop offset="0.991304" stop-color="#8A2387"/>
</linearGradient>
</defs>
</svg>
