<svg width="16" height="17" viewBox="0 0 16 17" fill="none" xmlns="http://www.w3.org/2000/svg">
<path d="M14.2337 8.2002C13.8368 8.2002 13.5608 8.5176 13.5044 8.84802C13.3407 9.80755 12.5089 10.5335 11.5004 10.5335H4.90037C4.84514 10.5335 4.80037 10.4888 4.80037 10.4335V9.83094C4.80037 9.27186 4.17727 8.93838 3.71208 9.24851L1.33319 10.8344C0.917581 11.1115 0.917582 11.7222 1.33319 11.9993L3.71208 13.5852C4.17727 13.8954 4.80037 13.5619 4.80037 13.0028V12.4002C4.80037 12.345 4.84514 12.3002 4.90037 12.3002H11.5004C13.4584 12.3002 15.0622 10.833 15.2762 8.93313C15.3235 8.5132 14.9768 8.2002 14.6004 8.2002H14.2337Z" fill="url(#paint0_linear_1012_641)"/>
<path d="M11.5004 4.59994V3.99735C11.5004 3.67787 11.8565 3.48731 12.1223 3.66453L14.5012 5.25046C14.7387 5.40879 14.7387 5.75777 14.5012 5.9161L12.1223 7.50202C11.8565 7.67923 11.5004 7.48868 11.5004 7.1692V6.56661C11.5004 6.34569 11.3213 6.16661 11.1004 6.16661H4.50044C3.34362 6.16661 2.38861 7.00004 2.20067 8.10167C2.16352 8.31944 1.98802 8.49994 1.76711 8.49994H1.40044C1.17953 8.49994 0.998048 8.32011 1.02277 8.10058C1.21978 6.35101 2.69653 4.99994 4.50044 4.99994H11.1004C11.3213 4.99994 11.5004 4.82085 11.5004 4.59994Z" fill="url(#paint1_linear_1012_641)" stroke="url(#paint2_linear_1012_641)" stroke-width="0.6"/>
<defs>
<linearGradient id="paint0_linear_1012_641" x1="3.62537" y1="9.09493" x2="5.70027" y2="15.0049" gradientUnits="userSpaceOnUse">
<stop stop-color="#8F0CFF"/>
<stop offset="0.516064" stop-color="#AA1DFF"/>
<stop offset="1" stop-color="#B826FF"/>
</linearGradient>
<linearGradient id="paint1_linear_1012_641" x1="3.62544" y1="3.84467" x2="5.70034" y2="9.7546" gradientUnits="userSpaceOnUse">
<stop stop-color="#8F0CFF"/>
<stop offset="0.516064" stop-color="#AA1DFF"/>
<stop offset="1" stop-color="#B826FF"/>
</linearGradient>
<linearGradient id="paint2_linear_1012_641" x1="3.62544" y1="3.84467" x2="5.70034" y2="9.7546" gradientUnits="userSpaceOnUse">
<stop stop-color="#8F0CFF"/>
<stop offset="0.516064" stop-color="#AA1DFF"/>
<stop offset="1" stop-color="#B826FF"/>
</linearGradient>
</defs>
</svg>
