<svg width="16" height="18" viewBox="0 0 16 18" fill="none" xmlns="http://www.w3.org/2000/svg">
<path d="M10.6171 10.6669H4.90037C4.84514 10.6669 4.80037 10.6221 4.80037 10.5669V9.96436C4.80037 9.40527 4.17727 9.0718 3.71208 9.38193L1.33319 10.9678C0.917581 11.2449 0.917582 11.8556 1.33319 12.1327L3.71208 13.7186C4.17727 14.0287 4.80037 13.6953 4.80037 13.1362V12.5336C4.80037 12.4784 4.84514 12.4336 4.90037 12.4336H10.6171C11.1049 12.4336 11.5004 12.0381 11.5004 11.5502C11.5004 11.0624 11.1049 10.6669 10.6171 10.6669Z" fill="url(#paint0_linear_1012_629)"/>
<path d="M11.5004 4.73374V4.13114C11.5004 3.81167 11.8565 3.62111 12.1223 3.79832L14.5012 5.38425C14.7387 5.54258 14.7387 5.89156 14.5012 6.04989L12.1223 7.63582C11.8565 7.81303 11.5004 7.62247 11.5004 7.303V6.7004C11.5004 6.47949 11.3213 6.3004 11.1004 6.3004H4.50044C3.34362 6.3004 2.38861 7.13384 2.20067 8.23547C2.16352 8.45324 1.98802 8.63374 1.76711 8.63374H1.40044C1.17953 8.63374 0.998048 8.45391 1.02277 8.23438C1.21978 6.48481 2.69653 5.13374 4.50044 5.13374H11.1004C11.3213 5.13374 11.5004 4.95465 11.5004 4.73374Z" fill="url(#paint1_linear_1012_629)" stroke="url(#paint2_linear_1012_629)" stroke-width="0.6"/>
<path d="M15.3052 13.3555C15.0563 13.6044 14.6517 13.6044 14.4028 13.3555L13.5003 12.453L12.5972 13.3555C12.3521 13.6089 11.9481 13.6159 11.6948 13.3714C11.4414 13.1264 11.4344 12.7224 11.6788 12.469C11.6839 12.4639 11.689 12.4581 11.6948 12.453L12.5972 11.5506L11.6948 10.6475C11.4414 10.4024 11.4344 9.99843 11.6788 9.74505C11.9239 9.49168 12.3279 9.48466 12.5813 9.7291C12.5864 9.7342 12.5921 9.73931 12.5972 9.74505L13.5003 10.6475L14.4028 9.74505C14.6479 9.49168 15.0519 9.48466 15.3052 9.7291C15.5586 9.97418 15.5656 10.3782 15.3212 10.6315C15.3161 10.6366 15.311 10.6424 15.3052 10.6475L14.4028 11.5506L15.3052 12.453C15.5554 12.7013 15.5586 13.1034 15.3103 13.3536C15.3103 13.3536 15.3084 13.3561 15.3052 13.3555Z" fill="url(#paint3_linear_1012_629)"/>
<defs>
<linearGradient id="paint0_linear_1012_629" x1="11.1464" y1="9.39393" x2="10.2705" y2="14.4321" gradientUnits="userSpaceOnUse">
<stop stop-color="#FE0F7C"/>
<stop offset="1" stop-color="#DF0066"/>
</linearGradient>
<linearGradient id="paint1_linear_1012_629" x1="14.5274" y1="3.5338" x2="13.6571" y2="9.36118" gradientUnits="userSpaceOnUse">
<stop stop-color="#FE0F7C"/>
<stop offset="1" stop-color="#DF0066"/>
</linearGradient>
<linearGradient id="paint2_linear_1012_629" x1="14.5274" y1="3.5338" x2="13.6571" y2="9.36118" gradientUnits="userSpaceOnUse">
<stop stop-color="#FE0F7C"/>
<stop offset="1" stop-color="#DF0066"/>
</linearGradient>
<linearGradient id="paint3_linear_1012_629" x1="15.3649" y1="9.66463" x2="13.8047" y2="13.5822" gradientUnits="userSpaceOnUse">
<stop stop-color="#FE0F7C"/>
<stop offset="1" stop-color="#DF0066"/>
</linearGradient>
</defs>
</svg>
