<svg width="64" height="64" viewBox="0 0 64 64" fill="none" xmlns="http://www.w3.org/2000/svg">
<path d="M26.0491 56.5005C36.3977 60.7274 49.0635 56.9671 55.6816 47.9281C60.4188 41.7276 62.1226 33.3368 60.2616 25.7373C58.6263 18.7007 53.9326 12.4895 47.6795 9.01916C39.8572 4.57015 29.7504 4.69347 22.0431 9.35584C14.836 13.5894 9.98293 21.4899 9.33816 29.8892L9.22437 29.8878C8.05208 29.874 6.78851 29.8591 5.56775 29.9849L5.49483 29.9924L5.4233 30.0084C4.30417 30.2567 3.54037 31.0937 3.20632 31.9984C2.87875 32.8855 2.90775 33.9868 3.53747 34.897C6.02153 39.0748 8.53983 43.2287 11.0866 47.3644C11.6786 48.5496 12.8763 49.0498 13.9467 49.0164C15.0032 48.9835 16.151 48.4263 16.6973 47.2674C19.2314 43.1505 21.7366 39.0108 24.2128 34.8598C25.3978 33.099 24.445 30.6836 22.5423 30.0591L22.4221 30.0196L22.2965 30.0048C21.0504 29.8573 19.7635 29.8703 18.5702 29.8878C19.156 25.5406 21.3606 21.4354 24.7443 18.7502L24.7535 18.743L24.7623 18.7357C28.8617 15.3594 34.6044 14.1776 39.6625 15.6807L39.6748 15.6845L39.6872 15.6878C46.9869 17.6976 52.3779 25.2915 51.761 32.9863L51.759 33.0123L51.7579 33.0382C51.4436 41.1183 44.5951 48.2578 36.6942 48.8438L36.6435 48.8476L36.5935 48.8554C35.2865 49.0585 33.9661 48.9413 32.5616 48.6865C31.8627 48.5597 31.1629 48.4028 30.4342 48.2396L30.4201 48.2363C29.6951 48.0739 28.9409 47.9051 28.1811 47.7691L28.0705 47.7492H27.9582C25.5906 47.7492 24.1341 49.576 23.7311 51.3698C23.3287 53.1609 23.8594 55.4349 25.9726 56.4662L26.0103 56.4846L26.0491 56.5005Z" fill="url(#paint0_linear_1012_685)"/>
<defs>
<linearGradient id="paint0_linear_1012_685" x1="32" y1="58.232" x2="32" y2="5.76854" gradientUnits="userSpaceOnUse">
<stop stop-color="#02AA93"/>
<stop offset="1" stop-color="#67FF80"/>
</linearGradient>
</defs>
</svg>
