<svg width="24" height="24" viewBox="0 0 24 24" fill="none" xmlns="http://www.w3.org/2000/svg">
<path d="M10.6233 23C7.95018 23 5.67801 22.0644 3.8068 20.1932C1.9356 18.322 1 16.0498 1 13.3767C1 12.0401 1.25413 10.788 1.76238 9.62036C2.27064 8.45273 2.96102 7.43694 3.83353 6.57297C4.70676 5.70901 5.72719 5.02326 6.89482 4.51572C8.06245 4.00818 9.3142 3.75405 10.6501 3.75334C10.7191 3.75334 10.7537 3.66985 10.7049 3.62103L9.87485 2.79101C9.76792 2.68408 9.692 2.56825 9.64709 2.4435C9.60218 2.31875 9.58009 2.18509 9.5808 2.04253C9.5808 1.89996 9.60325 1.7663 9.64816 1.64156C9.69307 1.51681 9.76863 1.40097 9.87485 1.29405C10.0709 1.09802 10.3204 1 10.6233 1C10.9263 1 11.1758 1.09802 11.3718 1.29405L14.1519 4.07412C14.2588 4.18104 14.3344 4.29688 14.3786 4.42163C14.4228 4.54637 14.4452 4.68003 14.4459 4.8226C14.4459 4.96517 14.4235 5.09882 14.3786 5.22357C14.3337 5.34832 14.2581 5.46415 14.1519 5.57108L11.3718 8.35115C11.1758 8.54718 10.9263 8.6452 10.6233 8.6452C10.3204 8.6452 10.0709 8.54718 9.87485 8.35115C9.76792 8.24423 9.69236 8.12839 9.64816 8.00364C9.60397 7.8789 9.58151 7.74524 9.5808 7.60267C9.5808 7.4601 9.60325 7.32645 9.64816 7.2017C9.69307 7.07695 9.76863 6.96112 9.87485 6.85419L10.7049 6.02417C10.7537 5.97534 10.7191 5.89186 10.6501 5.89186C8.58282 5.89186 6.81427 6.62252 5.3444 8.08384C3.87452 9.54516 3.13923 11.3094 3.13852 13.3767C3.13852 15.4439 3.86918 17.2082 5.3305 18.6695C6.79182 20.1308 8.55609 20.8615 10.6233 20.8615C11.1401 20.8615 11.6438 20.8123 12.1342 20.7139C12.6246 20.6155 13.1012 20.4687 13.5638 20.2734C13.7598 20.1843 13.9605 20.1575 14.1658 20.1932C14.3711 20.2288 14.5447 20.3179 14.6865 20.4605C14.9895 20.7635 15.1142 21.0931 15.0607 21.4496C15.0073 21.806 14.7934 22.0644 14.4192 22.2248C13.8311 22.4743 13.2206 22.666 12.5876 22.8C11.9546 22.9341 11.2998 23.0007 10.6233 23Z" fill="url(#paint0_linear_1012_682)"/>
<path d="M16.6382 19.2704C16.7629 19.3153 16.8966 19.3378 17.0392 19.3378C17.1817 19.3385 17.3154 19.3164 17.4401 19.2715C17.5649 19.2266 17.6807 19.1506 17.7877 19.0437L22.7062 14.1251C22.8125 14.0182 22.888 13.9024 22.9329 13.7776C22.9778 13.6529 23.0003 13.5192 23.0003 13.3766C23.001 13.2341 22.9789 13.1004 22.934 12.9757C22.8891 12.8509 22.8132 12.7351 22.7062 12.6282L17.7877 7.70957C17.6807 7.60336 17.5649 7.5278 17.4401 7.48289C17.3154 7.43798 17.1817 7.41553 17.0392 7.41553C16.8966 7.41624 16.7629 7.43869 16.6382 7.48289C16.5135 7.52709 16.3976 7.60265 16.2907 7.70957L11.3721 12.6282C11.2659 12.7351 11.1903 12.8509 11.1454 12.9757C11.1005 13.1004 11.0781 13.2341 11.0781 13.3766C11.0788 13.5192 11.1012 13.6529 11.1454 13.7776C11.1896 13.9024 11.2652 14.0182 11.3721 14.1251L16.2907 19.0437C16.3976 19.1499 16.5135 19.2255 16.6382 19.2704Z" fill="url(#paint1_linear_1012_682)"/>
<defs>
<linearGradient id="paint0_linear_1012_682" x1="3.63865" y1="3.49219" x2="16.5963" y2="12.3454" gradientUnits="userSpaceOnUse">
<stop stop-color="#8F0CFF"/>
<stop offset="0.516064" stop-color="#AA1DFF"/>
<stop offset="1" stop-color="#B826FF"/>
</linearGradient>
<linearGradient id="paint1_linear_1012_682" x1="13.3135" y1="8.76609" x2="20.8347" y2="16.7996" gradientUnits="userSpaceOnUse">
<stop stop-color="#8F0CFF"/>
<stop offset="0.516064" stop-color="#AA1DFF"/>
<stop offset="1" stop-color="#B826FF"/>
</linearGradient>
</defs>
</svg>
