<svg width="16" height="16" viewBox="0 0 16 16" fill="none" xmlns="http://www.w3.org/2000/svg">
<path d="M12 2H4C2.89543 2 2 2.89543 2 4V12C2 13.1045 2.89543 14 4 14H12C13.1045 14 14 13.1045 14 12V4C14 2.89543 13.1045 2 12 2Z" stroke="url(#paint0_linear_1012_726)" stroke-width="1.6"/>
<path d="M8.14142 4.14142C8.06332 4.06332 7.93668 4.06332 7.85858 4.14142L6.91572 5.08428C6.87822 5.12178 6.82734 5.14286 6.7743 5.14286H5.34286C5.2324 5.14286 5.14286 5.2324 5.14286 5.34286V6.7743C5.14286 6.82734 5.12178 6.87822 5.08428 6.91572L4.14142 7.85858C4.06332 7.93668 4.06332 8.06332 4.14142 8.14142L5.08428 9.08428C5.12178 9.12178 5.14286 9.17266 5.14286 9.2257V10.6571C5.14286 10.7676 5.2324 10.8571 5.34286 10.8571H6.7743C6.82734 10.8571 6.87822 10.8782 6.91572 10.9157L7.85858 11.8586C7.93668 11.9367 8.06332 11.9367 8.14142 11.8586L9.08428 10.9157C9.12178 10.8782 9.17266 10.8571 9.2257 10.8571H10.6571C10.7676 10.8571 10.8571 10.7676 10.8571 10.6571V9.2257C10.8571 9.17266 10.8782 9.12178 10.9157 9.08428L11.8586 8.14142C11.9367 8.06332 11.9367 7.93668 11.8586 7.85858L10.9157 6.91572C10.8782 6.87822 10.8571 6.82734 10.8571 6.7743V5.34286C10.8571 5.2324 10.7676 5.14286 10.6571 5.14286H9.2257C9.17266 5.14286 9.12178 5.12178 9.08428 5.08428L8.14142 4.14142Z" stroke="url(#paint1_linear_1012_726)" stroke-width="1.6"/>
<defs>
<linearGradient id="paint0_linear_1012_726" x1="8" y1="14" x2="8" y2="2" gradientUnits="userSpaceOnUse">
<stop stop-color="#FD5900"/>
<stop offset="1" stop-color="#FFDE00"/>
</linearGradient>
<linearGradient id="paint1_linear_1012_726" x1="8" y1="12" x2="8" y2="4" gradientUnits="userSpaceOnUse">
<stop stop-color="#FD5900"/>
<stop offset="1" stop-color="#FFDE00"/>
</linearGradient>
</defs>
</svg>
