<svg width="24" height="24" viewBox="0 0 24 24" fill="none" xmlns="http://www.w3.org/2000/svg">
<path d="M2.72774 14.0737C2.62717 14.0776 2.53179 14.1193 2.46063 14.1905L1.82456 14.8266C0.939987 15.7112 0.939993 17.1406 1.82457 18.0252C2.70902 18.9097 4.13856 18.9094 5.02319 18.0252L8.51266 14.5405C8.77032 14.2832 8.57814 13.8434 8.21429 13.8578L2.72774 14.0737Z" fill="url(#paint0_linear_1012_732)"/>
<path d="M9.79056 12.9411C9.71941 13.0122 9.62411 13.0538 9.52364 13.0578L4.03482 13.2738C3.6711 13.2881 3.47886 12.8486 3.73625 12.5913L10.4325 5.89493C10.6171 5.71001 10.8364 5.56324 11.078 5.46311C11.3193 5.363 11.5779 5.31152 11.839 5.31152C12.1003 5.31152 12.3589 5.36303 12.6003 5.4632C12.8413 5.56315 13.0606 5.70973 13.2454 5.89488L22.1748 14.8242C22.3853 15.0342 22.5525 15.2839 22.6663 15.5581C22.78 15.8326 22.8388 16.1274 22.8388 16.4245C22.8388 16.7216 22.7803 17.0159 22.6665 17.2903C22.5533 17.5633 22.3874 17.8118 22.1787 18.0209C21.304 18.9096 19.8616 18.9083 18.9878 18.0345L13.2571 12.3038C12.4765 11.5231 11.2109 11.5227 10.4297 12.3029L9.79056 12.9411Z" fill="url(#paint1_linear_1012_732)"/>
<defs>
<linearGradient id="paint0_linear_1012_732" x1="3.09222" y1="18.8791" x2="1.84647" y2="15.2002" gradientUnits="userSpaceOnUse">
<stop offset="0.106984" stop-color="#E02767"/>
<stop offset="0.871403" stop-color="#FA5D51"/>
</linearGradient>
<linearGradient id="paint1_linear_1012_732" x1="8.58708" y1="19.2165" x2="4.93436" y2="9.19265" gradientUnits="userSpaceOnUse">
<stop offset="0.106984" stop-color="#E02767"/>
<stop offset="0.871403" stop-color="#FA5D51"/>
</linearGradient>
</defs>
</svg>
