<svg width="24" height="24" viewBox="0 0 24 24" fill="none" xmlns="http://www.w3.org/2000/svg">
<path d="M2.72774 9.92628C2.62717 9.92232 2.53179 9.8806 2.46063 9.80943L1.82456 9.17337C0.939987 8.28877 0.939993 6.85936 1.82457 5.97476C2.70902 5.0903 4.13856 5.09059 5.02319 5.97476L6.32013 7.26992L8.51266 9.45946C8.77032 9.71676 8.57814 10.1565 8.21429 10.1422L2.72774 9.92628Z" fill="url(#paint0_linear_1012_735)"/>
<path d="M9.79056 11.059C9.71941 10.9879 9.62411 10.9463 9.52364 10.9423L4.03482 10.7263C3.6711 10.712 3.47886 11.1515 3.73625 11.4089L10.4325 18.1052C10.6171 18.2901 10.8364 18.4369 11.078 18.537C11.3193 18.6371 11.5779 18.6886 11.839 18.6886C12.1003 18.6886 12.3589 18.6371 12.6003 18.5369C12.8413 18.437 13.0606 18.2904 13.2454 18.1053L22.1748 9.17591C22.3853 8.96594 22.5525 8.71622 22.6663 8.44202C22.78 8.16757 22.8388 7.87277 22.8388 7.57564C22.8388 7.27851 22.7803 6.98428 22.6665 6.70984C22.5533 6.43683 22.3874 6.18837 22.1787 5.97925C21.304 5.09058 19.8616 5.09188 18.9878 5.9656L17.6863 7.26717L13.2571 11.6963C12.4765 12.477 11.2109 12.4774 10.4297 11.6973L9.79056 11.059Z" fill="url(#paint1_linear_1012_735)"/>
<defs>
<linearGradient id="paint0_linear_1012_735" x1="7.24385" y1="9.27456" x2="4.89833" y2="5.10277" gradientUnits="userSpaceOnUse">
<stop stop-color="#248EFE"/>
<stop offset="1" stop-color="#1DF4FF"/>
</linearGradient>
<linearGradient id="paint1_linear_1012_735" x1="19.2697" y1="16.2852" x2="12.5361" y2="5.15596" gradientUnits="userSpaceOnUse">
<stop stop-color="#248EFE"/>
<stop offset="1" stop-color="#1DF4FF"/>
</linearGradient>
</defs>
</svg>
