<svg width="16" height="16" viewBox="0 0 16 16" fill="none" xmlns="http://www.w3.org/2000/svg">
<path d="M13 2C13.5523 2 14 2.44772 14 3V13C14 13.5523 13.5523 14 13 14H3C2.44772 14 2 13.5523 2 13V3C2 2.44772 2.44772 2 3 2H13ZM10 4C10 3.44772 9.55228 3 9 3H4C3.44772 3 3 3.44772 3 4V12C3 12.5523 3.44772 13 4 13H9C9.55228 13 10 12.5523 10 12V4Z" fill="url(#paint0_linear_1012_659)"/>
<path d="M7.2938 4.99995C7.48904 4.80471 7.80559 4.80471 8.00083 4.99995C8.19607 5.19519 8.19607 5.51174 8.00083 5.70698L6.41497 7.29284C6.02444 7.68337 6.02444 8.31653 6.41497 8.70706L8.00083 10.2929C8.19607 10.4881 8.19607 10.8047 8.00083 10.9999C7.80559 11.1951 7.48904 11.1951 7.2938 10.9999L5.0009 8.70706C4.61038 8.31653 4.61038 7.68337 5.0009 7.29284L7.2938 4.99995Z" fill="url(#paint1_linear_1012_659)" stroke="url(#paint2_linear_1012_659)" stroke-width="0.6"/>
<defs>
<linearGradient id="paint0_linear_1012_659" x1="8" y1="14" x2="8" y2="2" gradientUnits="userSpaceOnUse">
<stop stop-color="#A93AFF"/>
<stop offset="1" stop-color="#FF81FF"/>
</linearGradient>
<linearGradient id="paint1_linear_1012_659" x1="6.32407" y1="11.3534" x2="6.32407" y2="4.64643" gradientUnits="userSpaceOnUse">
<stop stop-color="#A93AFF"/>
<stop offset="1" stop-color="#FF81FF"/>
</linearGradient>
<linearGradient id="paint2_linear_1012_659" x1="6.32407" y1="11.3534" x2="6.32407" y2="4.64643" gradientUnits="userSpaceOnUse">
<stop stop-color="#A93AFF"/>
<stop offset="1" stop-color="#FF81FF"/>
</linearGradient>
</defs>
</svg>
