<svg width="16" height="16" viewBox="0 0 16 16" fill="none" xmlns="http://www.w3.org/2000/svg">
<path d="M3 2C2.44772 2 2 2.44772 2 3V13C2 13.5523 2.44772 14 3 14H13C13.5523 14 14 13.5523 14 13V3C14 2.44772 13.5523 2 13 2H3ZM6 4C6 3.44772 6.44772 3 7 3H12C12.5523 3 13 3.44772 13 4V12C13 12.5523 12.5523 13 12 13H7C6.44772 13 6 12.5523 6 12V4Z" fill="url(#paint0_linear_1012_665)"/>
<path d="M10.9998 4.99995C10.8046 4.80471 10.488 4.80471 10.2928 4.99995L7.99993 7.29284C7.6094 7.68337 7.6094 8.31653 7.99993 8.70706L10.2928 10.9999C10.488 11.1951 10.8046 11.1951 10.9998 10.9999C11.195 10.8047 11.195 10.4881 10.9998 10.2929L9.41399 8.70706C9.02346 8.31653 9.02346 7.68337 9.41399 7.29284L10.9998 5.70698C11.195 5.51174 11.195 5.19519 10.9998 4.99995Z" fill="url(#paint1_linear_1012_665)" stroke="url(#paint2_linear_1012_665)" stroke-width="0.6"/>
<defs>
<linearGradient id="paint0_linear_1012_665" x1="14" y1="8" x2="1.99999" y2="8" gradientUnits="userSpaceOnUse">
<stop stop-color="#02AA93"/>
<stop offset="1" stop-color="#67FF80"/>
</linearGradient>
<linearGradient id="paint1_linear_1012_665" x1="11.3533" y1="7.99995" x2="7.29282" y2="7.99995" gradientUnits="userSpaceOnUse">
<stop stop-color="#02AA93"/>
<stop offset="1" stop-color="#67FF80"/>
</linearGradient>
<linearGradient id="paint2_linear_1012_665" x1="11.3533" y1="7.99995" x2="7.29282" y2="7.99995" gradientUnits="userSpaceOnUse">
<stop stop-color="#02AA93"/>
<stop offset="1" stop-color="#67FF80"/>
</linearGradient>
</defs>
</svg>
