<svg width="16" height="16" viewBox="0 0 16 16" fill="none" xmlns="http://www.w3.org/2000/svg">
<path d="M3 2C2.44772 2 2 2.44772 2 3V13C2 13.5523 2.44772 14 3 14H13C13.5523 14 14 13.5523 14 13V3C14 2.44772 13.5523 2 13 2H3ZM6 4C6 3.44772 6.44772 3 7 3H12C12.5523 3 13 3.44772 13 4V12C13 12.5523 12.5523 13 12 13H7C6.44772 13 6 12.5523 6 12V4Z" fill="url(#paint0_linear_1012_662)"/>
<path d="M8.70698 4.99995C8.51174 4.80471 8.19519 4.80471 7.99995 4.99995C7.80471 5.19519 7.80471 5.51174 7.99995 5.70698L9.58581 7.29284C9.97634 7.68337 9.97634 8.31653 9.58581 8.70706L7.99995 10.2929C7.80471 10.4881 7.80471 10.8047 7.99995 10.9999C8.19519 11.1951 8.51174 11.1951 8.70698 10.9999L10.9998 8.70706C11.3904 8.31653 11.3904 7.68337 10.9998 7.29284L8.70698 4.99995Z" fill="url(#paint1_linear_1012_662)" stroke="url(#paint2_linear_1012_662)" stroke-width="0.6"/>
<defs>
<linearGradient id="paint0_linear_1012_662" x1="8" y1="14" x2="8" y2="2" gradientUnits="userSpaceOnUse">
<stop stop-color="#A93AFF"/>
<stop offset="1" stop-color="#FF81FF"/>
</linearGradient>
<linearGradient id="paint1_linear_1012_662" x1="9.67671" y1="11.3534" x2="9.67671" y2="4.64643" gradientUnits="userSpaceOnUse">
<stop stop-color="#A93AFF"/>
<stop offset="1" stop-color="#FF81FF"/>
</linearGradient>
<linearGradient id="paint2_linear_1012_662" x1="9.67671" y1="11.3534" x2="9.67671" y2="4.64643" gradientUnits="userSpaceOnUse">
<stop stop-color="#A93AFF"/>
<stop offset="1" stop-color="#FF81FF"/>
</linearGradient>
</defs>
</svg>
