<svg width="16" height="16" viewBox="0 0 16 16" fill="none" xmlns="http://www.w3.org/2000/svg">
<path d="M2.5 13.5C2.5 13.8978 2.65804 14.2794 2.93934 14.5607C3.22064 14.842 3.60218 15 4 15C4.39782 15 4.77936 14.842 5.06066 14.5607C5.34196 14.2794 5.5 13.8978 5.5 13.5C5.5 13.1022 5.34196 12.7206 5.06066 12.4393C4.77936 12.158 4.39782 12 4 12C3.60218 12 3.22064 12.158 2.93934 12.4393C2.65804 12.7206 2.5 13.1022 2.5 13.5ZM6.5 13.5C6.5 13.8978 6.65804 14.2794 6.93934 14.5607C7.22064 14.842 7.60218 15 8 15C8.39782 15 8.77936 14.842 9.06066 14.5607C9.34196 14.2794 9.5 13.8978 9.5 13.5C9.5 13.1022 9.34196 12.7206 9.06066 12.4393C8.77936 12.158 8.39782 12 8 12C7.60218 12 7.22064 12.158 6.93934 12.4393C6.65804 12.7206 6.5 13.1022 6.5 13.5ZM10.5 13.5C10.5 13.8978 10.658 14.2794 10.9393 14.5607C11.2206 14.842 11.6022 15 12 15C12.3978 15 12.7794 14.842 13.0607 14.5607C13.342 14.2794 13.5 13.8978 13.5 13.5C13.5 13.1022 13.342 12.7206 13.0607 12.4393C12.7794 12.158 12.3978 12 12 12C11.6022 12 11.2206 12.158 10.9393 12.4393C10.658 12.7206 10.5 13.1022 10.5 13.5Z" fill="url(#paint0_linear_1012_607)"/>
<path d="M7.919 9.87052L3.63947 6.81371C3.08112 6.41489 3.08112 5.58507 3.63947 5.18625L7.919 2.12944C8.58087 1.65667 9.50024 2.1298 9.50024 2.94317V2.99998C9.50024 3.55226 9.94796 3.99998 10.5002 3.99998H12.5002C13.0525 3.99998 13.5002 4.4477 13.5002 4.99998V6.99998C13.5002 7.55226 13.0525 7.99998 12.5002 7.99998H10.5002C9.94796 7.99998 9.50024 8.4477 9.50024 8.99998V9.05679C9.50024 9.87016 8.58087 10.3433 7.919 9.87052Z" fill="url(#paint1_linear_1012_607)"/>
<defs>
<linearGradient id="paint0_linear_1012_607" x1="2.50161" y1="13.4556" x2="13.5018" y2="13.4556" gradientUnits="userSpaceOnUse">
<stop stop-color="#A93AFF"/>
<stop offset="1" stop-color="#FF81FF"/>
</linearGradient>
<linearGradient id="paint1_linear_1012_607" x1="2.50185" y1="5.85181" x2="13.502" y2="5.85181" gradientUnits="userSpaceOnUse">
<stop stop-color="#A93AFF"/>
<stop offset="1" stop-color="#FF81FF"/>
</linearGradient>
</defs>
</svg>
