<svg width="24" height="24" viewBox="0 0 24 24" fill="none" xmlns="http://www.w3.org/2000/svg">
<path d="M2.2426 5.2426C1 6.48414 1 8.48376 1 12.4819C1 16.4801 1 18.4797 2.2426 19.7213C3.48414 20.9639 5.48376 20.9639 9.48193 20.9639H11.0723C15.0705 20.9639 17.0701 20.9639 18.3116 19.7213C19.5542 18.4797 19.5542 16.4801 19.5542 12.4819C19.5542 8.48376 19.5542 6.48414 18.3116 5.2426C17.0701 4 15.0705 4 11.0723 4H9.48193C5.48376 4 3.48414 4 2.2426 5.2426Z" stroke="url(#paint0_linear_1012_773)" stroke-width="2"/>
<path d="M22.138 15.0461C22.138 15.2931 22.236 15.5299 22.4107 15.7045C22.5852 15.8791 22.8221 15.9772 23.0689 15.9772C23.3159 15.9772 23.5527 15.8791 23.7273 15.7045C23.902 15.5299 24 15.2931 24 15.0461V10.0806C24 9.83366 23.902 9.59684 23.7273 9.42224C23.5527 9.24763 23.3159 9.14953 23.0689 9.14953C22.8221 9.14953 22.5852 9.24763 22.4107 9.42224C22.236 9.59684 22.138 9.83366 22.138 10.0806V15.0461ZM10.7493 9.43506C10.9003 9.24465 10.971 9.00272 10.9461 8.76093C10.9211 8.51916 10.8026 8.2967 10.616 8.1411C10.4293 7.98549 10.1891 7.90908 9.94674 7.92817C9.70448 7.94727 9.47921 8.06038 9.31915 8.24331L6.21566 11.9675C6.10243 12.1034 6.03028 12.2688 6.00765 12.4442C5.98502 12.6197 6.01284 12.798 6.08787 12.9582C6.1629 13.1184 6.28203 13.2539 6.43129 13.349C6.58056 13.4439 6.75379 13.4944 6.9307 13.4944H9.28812L7.45707 15.6916C7.30599 15.8821 7.23536 16.124 7.26027 16.3658C7.28517 16.6076 7.40365 16.8301 7.59037 16.9857C7.7771 17.1413 8.01727 17.2176 8.25958 17.1986C8.50188 17.1795 8.72712 17.0664 8.88722 16.8835L11.9907 13.1593C12.104 13.0233 12.1761 12.8579 12.1987 12.6825C12.2213 12.507 12.1935 12.3287 12.1185 12.1685C12.0434 12.0083 11.9243 11.8727 11.7751 11.7778C11.6258 11.6828 11.4526 11.6324 11.2757 11.6324H8.91824L10.7493 9.43506Z" fill="url(#paint1_linear_1012_773)"/>
<defs>
<linearGradient id="paint0_linear_1012_773" x1="10.2771" y1="20.9639" x2="10.2771" y2="4" gradientUnits="userSpaceOnUse">
<stop stop-color="#FDA700"/>
<stop offset="1" stop-color="#FFDE00"/>
</linearGradient>
<linearGradient id="paint1_linear_1012_773" x1="15" y1="17.2015" x2="15" y2="7.92529" gradientUnits="userSpaceOnUse">
<stop stop-color="#FDA700"/>
<stop offset="1" stop-color="#FFDE00"/>
</linearGradient>
</defs>
</svg>
