<svg width="24" height="24" viewBox="0 0 24 24" fill="none" xmlns="http://www.w3.org/2000/svg">
<path d="M3.17199 5.17199C2 6.34299 2 8.22899 2 12C2 15.771 2 17.657 3.17199 18.828C4.34299 20 6.22899 20 9.99998 20H11.5C15.271 20 17.157 20 18.3279 18.828C19.4999 17.657 19.4999 15.771 19.4999 12C19.4999 8.22899 19.4999 6.34299 18.3279 5.17199C17.157 4 15.271 4 11.5 4H9.99998C6.22899 4 4.34299 4 3.17199 5.17199Z" stroke="url(#paint0_linear_1012_748)" stroke-width="2"/>
<path d="M21 14.9091C21 15.1984 21.1148 15.4759 21.3195 15.6805C21.5241 15.885 21.8016 16 22.0908 16C22.3801 16 22.6577 15.885 22.8622 15.6805C23.0669 15.4759 23.1817 15.1984 23.1817 14.9091V9.09098C23.1817 8.80165 23.0669 8.52411 22.8622 8.31953C22.6577 8.11494 22.3801 8 22.0908 8C21.8016 8 21.5241 8.11494 21.3195 8.31953C21.1148 8.52411 21 8.80165 21 9.09098V14.9091Z" fill="url(#paint1_linear_1012_748)"/>
<path d="M10.6711 7C11.4927 7 12.161 7.245 12.676 7.73332C13.1926 8.21164 13.4476 8.82497 13.4476 9.57489C13.4476 9.89992 13.3626 10.2299 13.1909 10.5649C13.0194 10.8999 12.8677 11.1365 12.731 11.2816C12.5562 11.4646 12.375 11.6413 12.1876 11.8115L12.1227 11.8783C11.5727 12.3765 11.2961 12.8698 11.2961 13.3665V13.4296C11.2961 13.6958 11.0803 13.9115 10.8142 13.9115H10.5012C10.2351 13.9115 10.0194 13.6958 10.0194 13.4296V13.2732C10.0194 12.8666 10.106 12.5199 10.2777 12.2316C10.4494 11.9316 10.7526 11.5832 11.1859 11.1865C11.4293 10.9599 11.601 10.7933 11.6994 10.6849C11.8253 10.5431 11.9307 10.3843 12.0126 10.2133C12.1178 10.0169 12.1733 9.79776 12.1743 9.57489C12.1743 9.15829 12.0393 8.82497 11.7677 8.57163C11.506 8.31997 11.141 8.19164 10.6711 8.19164C10.0522 8.19164 9.58886 8.46678 9.27943 9.01787C9.14226 9.26218 8.85245 9.40108 8.594 9.2929L8.33683 9.18526C8.09677 9.08478 7.97686 8.80964 8.102 8.58148C8.30153 8.21768 8.56631 7.89212 8.88438 7.62165C9.35438 7.205 9.9477 7 10.6711 7ZM10.6577 15.1564C10.9194 15.1564 11.1376 15.2466 11.3076 15.4282C11.491 15.6082 11.5793 15.8248 11.5793 16.0781C11.5793 16.3315 11.4893 16.5481 11.3093 16.7281C11.1376 16.9114 10.9194 16.9999 10.6594 16.9999C10.5377 17.002 10.4169 16.9797 10.304 16.9342C10.1911 16.8888 10.0886 16.821 10.0026 16.7349C9.91657 16.6488 9.84876 16.5463 9.80325 16.4335C9.75773 16.3207 9.73543 16.1998 9.7377 16.0781C9.73497 15.9564 9.75694 15.8353 9.8023 15.7223C9.84764 15.6092 9.91543 15.5065 10.0016 15.4204C10.0877 15.3343 10.1904 15.2664 10.3034 15.2211C10.4165 15.1757 10.5376 15.1538 10.6594 15.1564H10.6577Z" fill="url(#paint2_linear_1012_748)" stroke="url(#paint3_linear_1012_748)" stroke-width="0.6"/>
<defs>
<linearGradient id="paint0_linear_1012_748" x1="2" y1="9.35458" x2="16.799" y2="18.7653" gradientUnits="userSpaceOnUse">
<stop stop-color="#FDBD7E"/>
<stop offset="1" stop-color="#FCF09F"/>
</linearGradient>
<linearGradient id="paint1_linear_1012_748" x1="21" y1="10.6773" x2="23.5276" y2="11.078" gradientUnits="userSpaceOnUse">
<stop stop-color="#FDBD7E"/>
<stop offset="1" stop-color="#FCF09F"/>
</linearGradient>
<linearGradient id="paint2_linear_1012_748" x1="7.90607" y1="10.3466" x2="13.8684" y2="12.2676" gradientUnits="userSpaceOnUse">
<stop stop-color="#FDAC7E"/>
<stop offset="1" stop-color="#FCF39F"/>
</linearGradient>
<linearGradient id="paint3_linear_1012_748" x1="7.90607" y1="10.3466" x2="13.8684" y2="12.2676" gradientUnits="userSpaceOnUse">
<stop stop-color="#FDAC7E"/>
<stop offset="1" stop-color="#FCF39F"/>
</linearGradient>
</defs>
</svg>
