<svg width="24" height="24" viewBox="0 0 24 24" fill="none" xmlns="http://www.w3.org/2000/svg">
<path d="M2.87707 5.17199C1.70508 6.34299 1.70508 8.22899 1.70508 12C1.70508 15.771 1.70508 17.657 2.87707 18.828C4.04807 20 5.93407 20 9.70506 20H11.2051C14.9761 20 16.8621 20 18.033 18.828C19.205 17.657 19.205 15.771 19.205 12C19.205 8.22899 19.205 6.34299 18.033 5.17199C16.8621 4 14.9761 4 11.2051 4H9.70506C5.93407 4 4.04807 4 2.87707 5.17199Z" stroke="url(#paint0_linear_1012_745)" stroke-width="2"/>
<path fill-rule="evenodd" clip-rule="evenodd" d="M7.94798 8.80989C8.67618 8.22504 9.58228 7.9064 10.5163 7.90674H11.1022C11.2558 7.90659 11.408 7.93672 11.5501 7.99542C11.6921 8.05413 11.8211 8.14025 11.9298 8.24886C12.0386 8.35748 12.1248 8.48645 12.1837 8.62841C12.2425 8.77037 12.2728 8.92255 12.2728 9.07623C12.2728 9.23769 12.4037 9.36859 12.5652 9.36859H14.6153C14.8479 9.36859 15.071 9.46099 15.2355 9.62548C15.4 9.79003 15.4923 10.0131 15.4923 10.2457C15.4923 10.4784 15.4 10.7014 15.2355 10.8658C15.071 11.0304 14.8479 11.1228 14.6153 11.1228H12.7276C12.4765 11.1228 12.2728 11.3264 12.2728 11.5776V12.4223C12.2728 12.6734 12.4765 12.8771 12.7276 12.8771H14.6153C14.8479 12.8771 15.071 12.9694 15.2355 13.1339C15.4 13.2984 15.4923 13.5215 15.4923 13.7541C15.4923 13.9868 15.4 14.2099 15.2355 14.3744C15.071 14.5388 14.8479 14.6312 14.6153 14.6312H12.564C12.4026 14.6312 12.2716 14.7621 12.2716 14.9237C12.2716 15.0773 12.2413 15.2294 12.1826 15.3714C12.1237 15.5134 12.0374 15.6423 11.9287 15.7509C11.82 15.8595 11.6909 15.9457 11.5489 16.0044C11.4069 16.0631 11.2547 16.0933 11.1009 16.093H10.5151C9.58111 16.0934 8.67502 15.7748 7.94682 15.1899C7.31393 14.6816 6.8484 13.9987 6.60531 13.2299C6.54096 13.0264 6.35883 12.8771 6.14539 12.8771H4.09151C3.85343 12.8771 3.65467 12.6934 3.64549 12.4555C3.63379 12.1519 3.63379 11.848 3.64549 11.5443C3.65467 11.3064 3.85343 11.1228 4.09151 11.1228H6.14657C6.35999 11.1228 6.54212 10.9734 6.60648 10.7699C6.84957 10.0011 7.3151 9.3182 7.94798 8.80989ZM22.0934 14.9542C21.9237 14.7847 21.8286 14.5547 21.8286 14.3149V9.49308C21.8286 9.25329 21.9237 9.02328 22.0934 8.85373C22.2629 8.68417 22.4929 8.58891 22.7326 8.58891C22.9724 8.58891 23.2024 8.68417 23.3719 8.85373C23.5416 9.02328 23.6367 9.25329 23.6367 9.49308V14.3149C23.6367 14.5547 23.5416 14.7847 23.3719 14.9542C23.2024 15.1238 22.9724 15.219 22.7326 15.219C22.4929 15.219 22.2629 15.1238 22.0934 14.9542Z" fill="url(#paint1_linear_1012_745)"/>
<defs>
<linearGradient id="paint0_linear_1012_745" x1="10.455" y1="20" x2="10.455" y2="4.00005" gradientUnits="userSpaceOnUse">
<stop stop-color="#FFA336"/>
<stop offset="1" stop-color="#FF4D1C"/>
</linearGradient>
<linearGradient id="paint1_linear_1012_745" x1="13.6367" y1="16.093" x2="13.6367" y2="7.90677" gradientUnits="userSpaceOnUse">
<stop stop-color="#FFA336"/>
<stop offset="1" stop-color="#FF4D1C"/>
</linearGradient>
</defs>
</svg>
