<svg width="24" height="24" viewBox="0 0 24 24" fill="none" xmlns="http://www.w3.org/2000/svg">
<path d="M2.17199 5.17199C1 6.34299 1 8.22899 1 12C1 15.771 1 17.657 2.17199 18.828C3.34299 20 5.22899 20 8.99998 20H10.5C14.271 20 16.157 20 17.3279 18.828C18.4999 17.657 18.4999 15.771 18.4999 12C18.4999 8.22899 18.4999 6.34299 17.3279 5.17199C16.157 4 14.271 4 10.5 4H8.99998C5.22899 4 3.34299 4 2.17199 5.17199Z" stroke="url(#paint0_linear_1012_764)" stroke-width="2"/>
<path fill-rule="evenodd" clip-rule="evenodd" d="M7.12083 8.80989C7.84903 8.22504 8.75513 7.9064 9.68916 7.90674H10.275C10.4287 7.90659 10.5809 7.93672 10.7229 7.99542C10.8649 8.05414 10.994 8.14025 11.1027 8.24886C11.2115 8.35748 11.2977 8.48645 11.3566 8.62841C11.4153 8.77037 11.4457 8.92255 11.4457 9.07623C11.4457 9.23769 11.5766 9.36859 11.738 9.36859H13.7881C14.0207 9.36859 14.2438 9.46099 14.4083 9.62549C14.5729 9.79003 14.6652 10.0131 14.6652 10.2457C14.6652 10.4784 14.5729 10.7014 14.4083 10.8658C14.2438 11.0304 14.0207 11.1228 13.7881 11.1228H11.9005C11.6493 11.1228 11.4457 11.3264 11.4457 11.5776V12.4223C11.4457 12.6734 11.6493 12.8771 11.9005 12.8771H13.7881C14.0207 12.8771 14.2438 12.9694 14.4083 13.1339C14.5729 13.2984 14.6652 13.5215 14.6652 13.7541C14.6652 13.9868 14.5729 14.2099 14.4083 14.3744C14.2438 14.5388 14.0207 14.6312 13.7881 14.6312H11.7369C11.5754 14.6312 11.4444 14.7621 11.4444 14.9237C11.4444 15.0773 11.4142 15.2294 11.3554 15.3714C11.2965 15.5134 11.2102 15.6423 11.1015 15.7509C10.9928 15.8596 10.8638 15.9457 10.7218 16.0044C10.5798 16.0631 10.4275 16.0933 10.2738 16.093H9.6879C8.75396 16.0934 7.84787 15.7748 7.11967 15.1899C6.48678 14.6816 6.02125 13.9987 5.77816 13.2299C5.71382 13.0264 5.53168 12.8771 5.31825 12.8771H3.26436C3.02628 12.8771 2.82752 12.6934 2.81835 12.4555C2.80665 12.1519 2.80665 11.848 2.81835 11.5443C2.82752 11.3064 3.02628 11.1228 3.26436 11.1228H5.31942C5.53284 11.1228 5.71498 10.9734 5.77933 10.7699C6.02242 10.0012 6.48795 9.3182 7.12083 8.80989ZM21.2662 14.9542C21.0966 14.7847 21.0014 14.5547 21.0014 14.3149V9.49308C21.0014 9.25329 21.0966 9.02328 21.2662 8.85373C21.4357 8.68417 21.6658 8.58891 21.9054 8.58891C22.1452 8.58891 22.3752 8.68417 22.5448 8.85373C22.7144 9.02328 22.8096 9.25329 22.8096 9.49308V14.3149C22.8096 14.5547 22.7144 14.7847 22.5448 14.9542C22.3752 15.1238 22.1452 15.219 21.9054 15.219C21.6658 15.219 21.4357 15.1238 21.2662 14.9542Z" fill="url(#paint1_linear_1012_764)"/>
<defs>
<linearGradient id="paint0_linear_1012_764" x1="9.74997" y1="20" x2="9.74997" y2="4" gradientUnits="userSpaceOnUse">
<stop stop-color="#FDA700"/>
<stop offset="1" stop-color="#FFDE00"/>
</linearGradient>
<linearGradient id="paint1_linear_1012_764" x1="12.8095" y1="16.093" x2="12.8095" y2="7.90674" gradientUnits="userSpaceOnUse">
<stop stop-color="#FDA700"/>
<stop offset="1" stop-color="#FFDE00"/>
</linearGradient>
</defs>
</svg>
