<svg width="128" height="128" viewBox="0 0 128 128" fill="none" xmlns="http://www.w3.org/2000/svg">
<path fill-rule="evenodd" clip-rule="evenodd" d="M83.1617 8.03954C82.1119 8.06822 81.0671 8.09676 80.0423 8.06422C78.8288 10.698 77.3181 13.1704 75.6719 15.5524C76.9849 15.5828 78.3018 15.5654 79.6192 15.5479L79.6292 15.5478C82.4988 15.5096 85.3705 15.4714 88.2083 15.9268C89.3838 16.4173 90.3638 17.4245 90.6992 18.6704C90.7428 34.2717 90.7312 49.8729 90.7196 65.4742L90.7195 65.5699C90.7087 80.1215 90.698 94.6737 90.7321 109.225C90.377 111.304 88.1692 112.498 86.1814 112.356C82.7146 112.366 79.2458 112.364 75.7773 112.362H75.7624C72.8227 112.359 69.8827 112.357 66.9445 112.363C65.7912 112.362 64.638 112.361 63.4848 112.359L63.1078 112.358H63.104C56.4134 112.352 49.726 112.345 43.034 112.389C40.7682 112.505 37.8897 112.292 36.8892 109.851L36.8888 109.847C36.8616 91.432 36.8622 73.0141 36.8628 54.5965C36.8633 42.3819 36.8636 30.1675 36.8559 17.9541C36.5242 22.6574 36.5691 27.3764 36.6139 32.0975L36.614 32.102C36.647 35.5562 36.6799 39.0127 36.5654 42.4649C36.6493 52.1414 36.6684 61.8177 36.5586 71.5006C36.6555 79.4729 36.6498 87.4453 36.5789 95.4243C35.4596 96.6347 34.4372 97.9293 33.4158 99.2245L33.4158 99.2219C34.4365 97.9275 35.4583 96.6338 36.5769 95.4242C36.6478 87.4451 36.6535 79.4728 36.5566 71.5006C36.6664 61.8179 36.6466 52.1418 36.5628 42.4655C36.6773 39.0133 36.6451 35.5571 36.6122 32.1029V32.1019C36.5672 27.3796 36.5222 22.6585 36.854 17.954C36.9057 17.9019 36.9574 17.8496 37.009 17.7972L37.0112 17.795L37.0122 17.7941C37.7552 17.0419 38.5198 16.2678 39.5201 15.8883C42.9754 15.4595 46.4575 15.5086 49.9405 15.5577L49.9477 15.5578C51.8632 15.5848 53.7789 15.6117 55.6906 15.559L58.6041 15.562C64.2897 15.5683 69.9806 15.5745 75.6699 15.5524C77.3162 13.1705 78.8269 10.6981 80.0404 8.06429C73.3394 8.01264 66.6449 8.03205 59.9509 8.05786C53.3989 8.02559 46.8532 8.01928 40.3076 8.05156C34.3493 8.11611 28.9592 13.3837 29.056 19.3935L29.0517 21.6505C29.0333 31.3232 29.015 40.9962 29.0689 50.6687C29.0301 60.384 29.0043 70.1 29.0817 79.8151C30.6391 78.522 31.8913 76.9478 33.1439 75.3731L33.1446 75.3747C31.8925 76.9488 30.6406 78.5221 29.0839 79.8147C29.0194 87.9482 29.0261 96.0885 29.0712 104.229C28.8906 108.083 28.8711 112.259 31.3241 115.487C33.2736 117.662 35.8362 119.283 38.7346 119.825C48.3073 120.016 57.8871 119.994 67.4683 119.972L67.6013 119.972H67.6026L67.9167 119.971H67.9188C74.004 119.957 80.0899 119.944 86.1746 119.986C89.7637 120.167 93.2048 118.566 95.7027 116.042C97.3677 113.943 98.4665 111.336 98.4601 108.632C98.4197 102.721 98.4252 96.8108 98.4307 90.9014C98.4372 84.407 98.4427 77.9124 98.3885 71.4165C98.4503 64.1359 98.4372 56.8557 98.4244 49.5752L98.424 49.3474V49.3452C98.4194 46.8517 98.4148 44.3577 98.413 41.8641C98.4277 38.4246 98.4277 34.9852 98.4277 31.5463V31.541C98.4277 27.4432 98.4277 23.3462 98.4525 19.2512C98.4268 17.5148 97.9687 15.804 97.0525 14.3258L97.2847 14.0612L97.1369 13.8785C95.7369 12.1523 94.2881 10.366 92.2435 9.37461C89.4379 7.86809 86.278 7.95441 83.1617 8.03954ZM94.406 75.8547C94.1192 76.2214 93.8324 76.5882 93.5417 76.9517C93.8294 76.592 94.1131 76.229 94.3969 75.8661L94.406 75.8547L94.4072 75.8529L94.4079 75.852C94.7382 75.4295 95.0684 75.007 95.4046 74.5899C95.0704 75.0046 94.7421 75.4246 94.4138 75.8446L94.4079 75.852L94.406 75.8547ZM91.1903 21.4139C91.0744 20.5448 90.9248 19.6815 90.7351 18.8294C90.9248 19.6813 91.0752 20.5442 91.1911 21.4131L91.1903 21.4139Z" fill="url(#paint0_linear_1012_779)"/>
<path d="M98.8698 27.0484C98.9148 24.4396 98.9589 21.822 98.4549 19.251C98.4301 23.346 98.4301 27.443 98.4301 31.5408C98.4301 34.9814 98.4301 38.4226 98.4154 41.8639C98.4172 44.3575 98.4218 46.8515 98.4264 49.345V49.3472L98.4269 49.6045C98.4396 56.8752 98.4524 64.146 98.3906 71.4167C98.4448 77.9126 98.4393 84.4071 98.4329 90.9016C98.4273 96.8109 98.4218 102.721 98.4622 108.632C98.9635 106.076 98.9176 103.475 98.8717 100.882V100.88C98.8625 100.402 98.8542 99.9233 98.8496 99.4459C98.8561 75.7734 98.8561 52.1021 98.8496 28.4369C98.8532 28.0732 98.8591 27.7091 98.8651 27.3447L98.8698 27.0484Z" fill="url(#paint1_linear_1012_779)"/>
<path d="M52.3221 101.489C52.3287 99.3908 54.3297 97.6227 56.4083 97.8357L58.1229 97.8311H58.1245C62.5088 97.8182 66.8886 97.8063 71.2685 97.8357C73.7343 97.6548 75.8002 100.295 75.0512 102.645C74.7546 104.104 73.4567 105.124 72.0623 105.466C66.5946 105.33 61.1272 105.311 55.6596 105.479C53.7616 105.194 52.1736 103.452 52.3221 101.489Z" fill="url(#paint2_linear_1012_779)"/>
<path d="M90.7321 109.225C90.698 94.6737 90.7087 80.1215 90.7195 65.5699L90.7196 65.4742C90.7312 49.8729 90.7428 34.2717 90.6992 18.6704C90.3638 17.4245 89.3838 16.4173 88.2083 15.9268C85.3705 15.4714 82.4988 15.5096 79.6292 15.5478L79.6192 15.5479C78.3018 15.5654 76.9849 15.5828 75.6719 15.5524C77.3181 13.1704 78.8288 10.698 80.0423 8.06422C81.0671 8.09676 82.1119 8.06822 83.1617 8.03954C86.278 7.95441 89.4379 7.86809 92.2435 9.37461C94.2881 10.366 95.7369 12.1523 97.1369 13.8785L97.2847 14.0612L97.0525 14.3258C97.9687 15.804 98.4268 17.5148 98.4525 19.2512C98.4277 23.3462 98.4277 27.4432 98.4277 31.541V31.5463C98.4277 34.9852 98.4277 38.4246 98.413 41.8641C98.4148 44.3577 98.4194 46.8517 98.424 49.3452V49.3474L98.4244 49.5752C98.4372 56.8557 98.4503 64.1359 98.3885 71.4165C98.4427 77.9124 98.4372 84.407 98.4307 90.9014C98.4252 96.8108 98.4197 102.721 98.4601 108.632C98.4665 111.336 97.3677 113.943 95.7027 116.042C93.2048 118.566 89.7637 120.167 86.1746 119.986C80.0899 119.944 74.004 119.957 67.9188 119.971H67.9167L67.6026 119.972H67.6013L67.4683 119.972C57.8871 119.994 48.3073 120.016 38.7346 119.825C35.8362 119.283 33.2736 117.662 31.3241 115.487C28.8711 112.259 28.8906 108.083 29.0712 104.229C29.0261 96.0885 29.0194 87.9482 29.0839 79.8147C30.6406 78.5221 31.8925 76.9488 33.1446 75.3747L33.1439 75.3731C31.8913 76.9478 30.6391 78.522 29.0817 79.8151C29.0043 70.1 29.0301 60.384 29.0689 50.6687C29.015 40.9962 29.0333 31.3232 29.0517 21.6505L29.056 19.3935C28.9592 13.3837 34.3493 8.11611 40.3076 8.05156C46.8532 8.01928 53.3989 8.02559 59.9509 8.05786C66.6449 8.03205 73.3394 8.01264 80.0404 8.06429C78.8269 10.6981 77.3162 13.1705 75.6699 15.5524C69.9806 15.5745 64.2897 15.5683 58.6041 15.562L55.6906 15.559C53.7789 15.6117 51.8632 15.5848 49.9477 15.5578L49.9405 15.5577C46.4575 15.5086 42.9754 15.4595 39.5201 15.8883C38.5198 16.2678 37.7552 17.0419 37.0122 17.7941L37.0112 17.795L37.009 17.7972C36.9574 17.8496 36.9057 17.9019 36.854 17.954C36.5222 22.6585 36.5672 27.3796 36.6122 32.1019V32.1029C36.6451 35.5571 36.6773 39.0133 36.5628 42.4655C36.6466 52.1418 36.6664 61.8179 36.5566 71.5006C36.6535 79.4728 36.6478 87.4451 36.5769 95.4242C35.4583 96.6338 34.4365 97.9275 33.4158 99.2219L33.4158 99.2245C34.4372 97.9293 35.4596 96.6347 36.5789 95.4243C36.6498 87.4453 36.6555 79.4729 36.5586 71.5006C36.6684 61.8177 36.6493 52.1414 36.5654 42.4649C36.6799 39.0127 36.647 35.5562 36.614 32.102L36.6139 32.0975C36.5691 27.3764 36.5242 22.6574 36.8559 17.9541C36.8636 30.1675 36.8633 42.3819 36.8628 54.5965C36.8622 73.0141 36.8616 91.432 36.8888 109.847L36.8892 109.851C37.8897 112.292 40.7682 112.505 43.034 112.389C49.726 112.345 56.4134 112.352 63.104 112.358H63.1078L63.4848 112.359C64.638 112.361 65.7912 112.362 66.9445 112.363C69.8827 112.357 72.8227 112.359 75.7624 112.362H75.7773C79.2458 112.364 82.7146 112.366 86.1814 112.356C88.1692 112.498 90.377 111.304 90.7321 109.225ZM90.7321 109.225C91.0417 107.276 91.1062 105.294 91.1191 103.325L91.119 103.319L91.1189 103.313C91.0675 95.4163 91.0159 87.5119 91.1708 79.6151M94.406 75.8547C94.1192 76.2214 93.8324 76.5882 93.5417 76.9517C93.8294 76.592 94.1131 76.229 94.3969 75.8661L94.406 75.8547ZM94.406 75.8547L94.4072 75.8529L94.4079 75.852M94.406 75.8547L94.4079 75.852M94.4079 75.852C94.7382 75.4295 95.0684 75.007 95.4046 74.5899C95.0704 75.0046 94.7421 75.4246 94.4138 75.8446L94.4079 75.852ZM90.7351 18.8294C90.9248 19.6815 91.0744 20.5448 91.1903 21.4139L91.1911 21.4131C91.0752 20.5442 90.9248 19.6813 90.7351 18.8294ZM98.4549 19.251C98.9589 21.822 98.9148 24.4396 98.8698 27.0484L98.8651 27.3447C98.8591 27.7091 98.8532 28.0732 98.8496 28.4369C98.8561 52.1021 98.8561 75.7734 98.8496 99.4459C98.8542 99.9233 98.8625 100.402 98.8717 100.88V100.882C98.9176 103.475 98.9635 106.076 98.4622 108.632C98.4218 102.721 98.4273 96.8109 98.4329 90.9016C98.4393 84.4071 98.4448 77.9126 98.3906 71.4167C98.4524 64.146 98.4396 56.8752 98.4269 49.6045L98.4264 49.3472V49.345C98.4218 46.8515 98.4172 44.3575 98.4154 41.8639C98.4301 38.4226 98.4301 34.9814 98.4301 31.5408C98.4301 27.443 98.4301 23.346 98.4549 19.251ZM56.4083 97.8357C54.3297 97.6227 52.3287 99.3908 52.3221 101.489C52.1736 103.452 53.7616 105.194 55.6596 105.479C61.1272 105.311 66.5946 105.33 72.0623 105.466C73.4567 105.124 74.7546 104.104 75.0512 102.645C75.8002 100.295 73.7343 97.6548 71.2685 97.8357C66.8886 97.8063 62.5088 97.8182 58.1245 97.8311H58.1229L56.4083 97.8357Z" stroke="url(#paint3_linear_1012_779)" stroke-width="4"/>
<defs>
<linearGradient id="paint0_linear_1012_779" x1="63.9491" y1="120" x2="63.9491" y2="7.99999" gradientUnits="userSpaceOnUse">
<stop stop-color="#02AA93"/>
<stop offset="1" stop-color="#67FF80"/>
</linearGradient>
<linearGradient id="paint1_linear_1012_779" x1="63.9491" y1="120" x2="63.9491" y2="7.99999" gradientUnits="userSpaceOnUse">
<stop stop-color="#02AA93"/>
<stop offset="1" stop-color="#67FF80"/>
</linearGradient>
<linearGradient id="paint2_linear_1012_779" x1="63.9491" y1="120" x2="63.9491" y2="7.99999" gradientUnits="userSpaceOnUse">
<stop stop-color="#02AA93"/>
<stop offset="1" stop-color="#67FF80"/>
</linearGradient>
<linearGradient id="paint3_linear_1012_779" x1="63.9491" y1="120" x2="63.9491" y2="7.99999" gradientUnits="userSpaceOnUse">
<stop stop-color="#02AA93"/>
<stop offset="1" stop-color="#67FF80"/>
</linearGradient>
</defs>
</svg>
