<svg width="128" height="129" viewBox="0 0 128 129" fill="none" xmlns="http://www.w3.org/2000/svg">
<path d="M107.834 14.1473C110.86 15.8155 113.161 18.5595 114.688 21.6855C114.687 21.6855 114.686 21.6856 114.685 21.6857C113.891 21.7471 113.023 21.8143 112.211 22.0822L112.109 22.1161L112.029 22.1893C111.228 22.9276 110.573 23.776 109.975 24.6367C109.703 25.0287 109.44 25.4275 109.181 25.8204C109.156 25.8587 109.13 25.8969 109.105 25.9351C109.042 26.0312 108.978 26.127 108.915 26.2223C108.262 23.6558 106.654 21.2998 104.233 20.0513C102.798 19.2274 101.247 19.0535 99.7534 18.9986C99.3637 18.9843 98.9812 18.9777 98.6049 18.9713C97.5055 18.9526 96.4588 18.9347 95.4379 18.7258C94.7672 18.5526 94.2968 18.1053 93.8947 17.485C93.6153 17.054 93.3999 16.5958 93.1756 16.1188C93.0893 15.9354 93.0018 15.7491 92.9087 15.5606C93.186 14.8299 93.4684 14.0954 93.8692 13.481C94.2939 12.8298 94.8206 12.3634 95.5658 12.2039C99.767 11.7245 104.195 11.9842 107.819 14.1392L107.826 14.1433L107.834 14.1473Z" fill="url(#paint0_linear_1012_797)" stroke="url(#paint1_linear_1012_797)"/>
<path d="M11.5251 28.0149L11.5251 28.0115C11.4864 19.8387 18.5048 12.4034 26.6355 12.0892C32.7831 12.0169 38.9305 12.0373 45.0822 12.0578C46.0129 12.0609 46.9438 12.064 47.8747 12.0667C47.2158 13.1189 46.5385 14.1619 45.8578 15.2079C45.8155 15.2729 45.7732 15.3379 45.7308 15.4029C44.9793 16.5574 44.2248 17.7167 43.4921 18.8905C41.2639 18.917 39.0186 18.9042 36.7692 18.8914C33.5942 18.8733 30.4108 18.8552 27.2552 18.9474C23.8453 19.033 20.7459 21.1951 19.3194 24.2585L19.3179 24.2618C19.0062 24.9437 18.7572 25.6458 18.5638 26.3742L18.5562 26.403L18.552 26.4324C18.014 30.2326 17.9545 34.0584 17.9837 37.8651C17.9905 38.7538 18.0021 39.6407 18.0137 40.5259C18.0511 43.3858 18.0883 46.2292 17.9629 49.065C16.9629 50.233 16.0409 51.4683 15.1307 52.6876C14.9027 52.9931 14.6754 53.2975 14.4478 53.5997C13.516 54.837 12.5745 56.0425 11.5368 57.1572C11.4818 48.5757 11.4999 39.9897 11.5181 31.4048C11.5205 30.2748 11.5229 29.1448 11.5251 28.0149Z" fill="url(#paint2_linear_1012_797)" stroke="url(#paint3_linear_1012_797)"/>
<path d="M44.6743 18.8889C48.7611 18.8976 52.8453 18.8967 56.9303 18.8957C60.585 18.8949 64.2402 18.8941 67.8984 18.9002C67.8987 18.9002 67.8989 18.9002 67.8992 18.9002L67.8984 19.4002C68.5488 19.3989 69.201 19.406 69.854 19.4131C72.7695 19.4446 75.6997 19.4763 78.5501 18.7715L44.6743 18.8889ZM44.6743 18.8889C45.2964 17.9039 45.9326 16.9264 46.571 15.9456C46.6128 15.8815 46.6545 15.8173 46.6963 15.7531C47.4894 14.5345 48.2842 13.3103 49.052 12.068C57.7788 12.0357 66.5059 12.0423 75.2342 12.049L75.2572 12.049L75.28 12.0469C76.8974 11.8992 78.5197 12.9107 78.9536 14.4593L78.9594 14.4799L78.9669 14.4999C79.2015 15.1254 79.1347 15.7591 78.9196 16.4494C78.8117 16.7959 78.6706 17.1437 78.5192 17.5056C78.4991 17.5534 78.4789 17.6016 78.4585 17.6501C78.3628 17.878 78.2642 18.1125 78.1739 18.3474L44.6743 18.8889Z" fill="url(#paint4_linear_1012_797)" stroke="url(#paint5_linear_1012_797)"/>
<path d="M82.6353 16.6811C82.6267 16.389 82.6134 16.0803 82.5719 15.7785C82.5721 15.7709 82.5722 15.7633 82.5723 15.7556C82.5855 15.0189 82.5998 14.2188 82.8024 13.5553C82.9997 12.909 83.3453 12.4767 84.0135 12.351C85.6482 12.1367 87.3074 12.0613 88.8414 12.4716C89.2854 12.7194 89.5196 13.1103 89.6476 13.617C89.7796 14.1396 89.7858 14.7317 89.7922 15.3439C89.7924 15.3608 89.7926 15.3776 89.7928 15.3944C89.7538 15.7341 89.7558 16.0858 89.7643 16.4177C89.7667 16.5094 89.7695 16.5991 89.7722 16.6873C89.7801 16.9402 89.7876 17.1807 89.7829 17.4212C89.7717 17.9915 89.6902 18.4429 89.4487 18.7906C87.3174 19.0613 85.142 19.0412 82.9919 18.8084C82.7904 18.4728 82.7061 18.0637 82.6697 17.5729C82.6529 17.347 82.647 17.1201 82.6408 16.881C82.639 16.8154 82.6373 16.7488 82.6353 16.6811Z" fill="url(#paint6_linear_1012_797)" stroke="url(#paint7_linear_1012_797)"/>
<path d="M109.16 41.8864C109.158 37.1409 109.155 32.3956 109.154 27.6506C109.424 27.2652 109.684 26.8733 109.94 26.4858C109.965 26.4478 109.99 26.4099 110.015 26.3721C110.275 25.9775 110.532 25.5885 110.797 25.2068C111.356 24.4016 111.939 23.6485 112.627 22.9991C113.28 22.7998 113.945 22.7478 114.672 22.691C114.805 22.6806 114.941 22.67 115.079 22.6583C115.574 24.3845 115.987 26.1052 116.036 27.8523C116.011 32.6372 116.014 37.404 116.017 42.1681C116.021 47.3553 116.024 52.5395 115.99 57.7409C113.841 60.252 111.718 62.8307 109.914 65.6432C109.58 66.1348 109.34 66.6543 109.166 67.1872C109.167 58.753 109.164 50.3193 109.16 41.8864Z" fill="url(#paint8_linear_1012_797)" stroke="url(#paint9_linear_1012_797)"/>
<path d="M89.8728 62.811L89.8729 62.8349L89.8753 62.8587C90.0152 64.2643 89.607 65.5673 88.9531 66.8506C88.5195 67.7014 88.0039 68.5002 87.482 69.3087C87.2408 69.6823 86.9983 70.0581 86.7619 70.4419C86.5472 70.4809 86.2837 70.5301 86.0587 70.5729C84.6884 68.7954 83.5447 66.7845 82.8363 64.6829C82.7149 57.9076 82.7181 51.1375 82.7213 44.3619C82.7237 39.3547 82.7261 34.3444 82.6782 29.3266L82.6782 29.3253C82.6768 29.2157 82.6754 29.1061 82.6741 28.9967C82.6496 27.0594 82.6255 25.1497 82.8654 23.2694C85.0747 23.0961 87.2978 23.1046 89.5161 23.239C89.829 24.8545 89.8064 26.4881 89.7831 28.1764C89.7747 28.7802 89.7662 29.3911 89.773 30.0106C89.7934 35.5791 89.8087 41.1413 89.824 46.7039C89.8387 52.0707 89.8534 57.4378 89.8728 62.811Z" fill="url(#paint10_linear_1012_797)" stroke="url(#paint11_linear_1012_797)"/>
<path d="M18.4446 79.8591C18.3246 80.166 18.177 80.4674 17.9953 80.76C16.2152 83.6842 14.0042 86.3302 11.5425 88.6866C11.4922 92.7515 11.499 96.8172 11.5186 100.879L18.4446 79.8591ZM18.4446 79.8591C18.4538 86.6436 18.4561 93.4273 18.4341 100.209M18.4446 79.8591L18.4341 100.209M18.4341 100.209C18.2515 102.983 19.4801 105.502 21.1772 107.496C19.7503 109.277 18.3797 111.098 17.061 112.955C16.3928 112.361 15.7497 111.735 15.1315 111.093C12.8685 108.189 11.538 104.565 11.5186 100.879L18.4341 100.209Z" fill="url(#paint12_linear_1012_797)" stroke="url(#paint13_linear_1012_797)"/>
<mask id="path-8-inside-1_1012_797" fill="white">
<path d="M116.536 27.8467C116.755 28.9903 116.948 30.1405 116.982 31.3108C116.908 51.1594 116.982 71.0145 116.942 90.8637C116.889 94.2538 117.281 97.6914 116.549 101.042C116.47 86.6705 116.563 72.2989 116.489 57.9272C116.556 47.9026 116.482 37.878 116.536 27.8467Z"/>
</mask>
<path d="M116.536 27.8467C116.755 28.9903 116.948 30.1405 116.982 31.3108C116.908 51.1594 116.982 71.0145 116.942 90.8637C116.889 94.2538 117.281 97.6914 116.549 101.042C116.47 86.6705 116.563 72.2989 116.489 57.9272C116.556 47.9026 116.482 37.878 116.536 27.8467Z" fill="url(#paint14_linear_1012_797)"/>
<path d="M116.536 27.8467L117.518 27.6586L115.536 27.8413L116.536 27.8467ZM116.982 31.3108L117.982 31.3145L117.982 31.2981L117.982 31.2817L116.982 31.3108ZM116.942 90.8637L117.942 90.8793L117.942 90.8657L116.942 90.8637ZM116.549 101.042L115.549 101.047L117.526 101.255L116.549 101.042ZM116.489 57.9272L115.489 57.9205L115.489 57.9323L116.489 57.9272ZM115.554 28.0348C115.771 29.1699 115.951 30.2542 115.983 31.3398L117.982 31.2817C117.945 30.0267 117.739 28.8106 117.518 27.6586L115.554 28.0348ZM115.982 31.3071C115.908 51.1521 115.982 71.0248 115.942 90.8617L117.942 90.8657C117.982 71.0042 117.908 51.1666 117.982 31.3145L115.982 31.3071ZM115.942 90.848C115.916 92.5155 116.001 94.37 116 95.9675C116 97.6411 115.916 99.2557 115.572 100.828L117.526 101.255C117.915 99.4775 118 97.698 118 95.9677C118.001 94.1613 117.915 92.6019 117.942 90.8793L115.942 90.848ZM117.549 101.036C117.51 93.8541 117.513 86.6714 117.517 79.4852C117.522 72.3 117.526 65.1112 117.489 57.922L115.489 57.9323C115.526 65.1148 115.522 72.2977 115.517 79.4841C115.513 86.6694 115.51 93.8581 115.549 101.047L117.549 101.036ZM117.489 57.9339C117.556 47.946 117.483 37.8287 117.536 27.8521L115.536 27.8413C115.482 37.9272 115.557 47.8592 115.489 57.9205L117.489 57.9339Z" fill="url(#paint15_linear_1012_797)" mask="url(#path-8-inside-1_1012_797)"/>
<path d="M17.1444 80.2339L17.1443 80.2339L17.1419 80.2379C15.5794 82.805 13.6697 85.1595 11.5382 87.2913C11.4855 77.7227 11.4873 68.1546 11.5437 58.5865C12.92 57.225 14.1062 55.7153 15.2465 54.2013C15.4798 53.8915 15.7109 53.5819 15.9413 53.2732C16.6107 52.3766 17.2738 51.4883 17.9666 50.6273C17.9897 53.924 17.9688 57.2367 17.9479 60.5535C17.9179 65.3148 17.8878 70.0845 17.9876 74.8269C17.9815 75.1243 17.9803 75.4174 17.979 75.7076C17.9762 76.3803 17.9734 77.0373 17.9101 77.6944C17.8209 78.6211 17.6143 79.4779 17.1444 80.2339Z" fill="url(#paint16_linear_1012_797)" stroke="url(#paint17_linear_1012_797)"/>
<path d="M110.744 66.2002L110.745 66.2003L110.752 66.1887C112.31 63.759 114.117 61.4983 115.996 59.2775C116.025 65.9068 116.021 72.5364 116.017 79.1675L116.017 79.4844C116.013 86.6681 116.01 93.8535 116.049 101.039C115.983 104.92 114.457 108.728 111.928 111.664C109.245 114.374 105.797 116.422 102.018 116.812C97.1004 116.555 92.1788 116.524 87.2688 116.5C87.0802 116.5 86.8916 116.499 86.703 116.498C82.2471 116.477 77.8013 116.456 73.3609 116.275C74.6568 114.155 76.0726 112.109 77.5456 110.094C80.6899 110.087 83.8374 110.089 86.9854 110.091C91.2957 110.095 95.6067 110.098 99.9113 110.075C103.937 110.116 107.692 107.212 108.769 103.342L108.772 103.329L108.775 103.316C108.848 102.988 108.969 102.385 109.054 101.963C109.073 101.871 109.09 101.787 109.104 101.716L109.104 101.716L109.105 101.71C109.711 98.5197 109.677 95.2586 109.643 92.0624C109.631 90.987 109.62 89.9189 109.633 88.8634L109.633 88.8601C109.642 87.3238 109.657 85.7859 109.672 84.2471C109.71 80.2108 109.749 76.1683 109.686 72.1321C109.69 71.9024 109.692 71.6737 109.693 71.446C109.7 70.6095 109.707 69.7866 109.804 68.9793C109.925 67.9614 110.187 67.0199 110.744 66.2002Z" fill="url(#paint18_linear_1012_797)" stroke="url(#paint19_linear_1012_797)"/>
<path d="M25.7678 116.817C22.8927 116.566 20.1499 115.348 17.8333 113.593C19.1484 111.739 20.515 109.922 21.9376 108.145C23.6801 109.24 25.686 110.172 27.9028 110.089C30.9021 110.101 33.892 110.096 36.8803 110.091C40.1069 110.086 43.3317 110.081 46.5644 110.097C46.3629 110.439 46.1652 110.783 45.9687 111.125L45.961 111.138C45.6144 111.741 45.2714 112.337 44.9111 112.919C44.2096 114.051 43.4548 115.108 42.5215 115.999C41.6338 116.297 40.6943 116.404 39.7119 116.438C39.2027 116.455 38.6884 116.453 38.1655 116.449C38.12 116.449 38.0743 116.448 38.0286 116.448C37.5576 116.444 37.0792 116.44 36.6047 116.451C32.9783 116.331 29.3571 116.565 25.7678 116.817Z" fill="url(#paint20_linear_1012_797)" stroke="url(#paint21_linear_1012_797)"/>
<path d="M47.7275 110.102C57.2593 110.089 66.7844 110.083 76.3096 110.095C74.8141 112.163 73.3766 114.279 72.0684 116.483L71.7696 116.986C62.0969 116.982 52.4248 116.979 42.7539 116.976C42.8206 116.954 42.8871 116.932 42.9536 116.909L43.0524 116.874L43.1289 116.802C44.1905 115.809 45.0214 114.641 45.762 113.446C46.1324 112.848 46.4834 112.237 46.8287 111.637L46.8321 111.631C47.1304 111.112 47.4244 110.601 47.7275 110.102Z" fill="url(#paint22_linear_1012_797)" stroke="url(#paint23_linear_1012_797)"/>
<path d="M108.074 13.7094C111.423 15.5551 113.893 18.6582 115.444 22.1223C115.99 23.9882 116.482 25.8941 116.536 27.8469C116.755 28.9904 116.948 30.1407 116.981 31.311C116.908 51.1596 116.982 71.0147 116.941 90.8638C116.888 94.254 117.281 97.6916 116.549 101.042C116.482 105.054 114.905 108.98 112.295 112.003C109.545 114.785 105.977 116.918 102.029 117.313C100.658 117.453 99.2733 117.493 97.8953 117.5C78.966 117.488 60.0366 117.481 41.1118 117.475L33.9526 117.473C31.2232 117.453 28.487 117.56 25.7643 117.319C22.6021 117.052 19.613 115.661 17.1498 113.694C16.311 112.979 15.5121 112.21 14.7532 111.421C12.4165 108.431 11.0385 104.693 11.0185 100.881C10.9985 96.7486 10.9918 92.6091 11.0451 88.4696C10.9852 78.4378 10.9852 68.4066 11.0451 58.3754C10.9719 48.2572 11.0052 38.1323 11.0251 28.014C10.9852 19.5744 18.215 11.9105 26.623 11.5894C34.0059 11.5025 41.3888 11.5493 48.7717 11.5694C57.5489 11.5361 66.326 11.5426 75.1032 11.5492L75.2341 11.5493C77.0651 11.3821 78.9287 12.519 79.4347 14.3247C80.014 15.8695 79.0489 17.3608 78.5497 18.7719C75.061 19.6345 71.4527 19.3938 67.898 19.4005C59.8559 19.3871 51.814 19.4072 43.772 19.3871C38.2665 19.4607 32.761 19.2868 27.2688 19.4473C24.06 19.5275 21.1242 21.5672 19.7727 24.4697C19.4732 25.125 19.2335 25.8005 19.0471 26.5026C18.7742 51.0726 19.0138 75.6491 18.9339 100.226C18.7475 102.975 20.039 105.496 21.8298 107.482C23.6406 108.666 25.6711 109.676 27.8945 109.589C34.412 109.615 40.9294 109.562 47.4469 109.602C57.3995 109.589 67.3452 109.582 77.2913 109.596C84.8339 109.575 92.3766 109.615 99.9124 109.575C103.707 109.615 107.269 106.867 108.287 103.208C108.374 102.814 108.534 102.012 108.614 101.617C108.693 76.9063 108.66 52.1962 108.654 27.4924C108.261 24.6034 106.623 21.8414 103.993 20.4905C101.337 18.9591 98.1819 19.8017 95.3255 19.2132C93.635 18.7852 93.0686 16.9662 92.363 15.5886C92.9559 14.0304 93.6282 12.091 95.4857 11.7098C99.7392 11.2216 104.306 11.4691 108.074 13.7094Z" fill="url(#paint24_linear_1012_797)"/>
<path d="M83.9354 11.857C82.0976 12.1913 82.0976 14.3447 82.0711 15.8093C82.2375 16.9461 81.9577 18.3171 82.7102 19.2801C85.0336 19.5476 87.397 19.5744 89.7136 19.2601C90.6122 18.2569 90.1395 16.6653 90.2929 15.4214C90.2794 14.1775 90.2997 12.6661 89.0277 12.0041C87.3767 11.5493 85.6129 11.6363 83.9354 11.857Z" fill="url(#paint25_linear_1012_797)"/>
<path d="M89.9269 22.7643C87.4303 22.5971 84.9202 22.5837 82.4243 22.8044C82.1044 24.9645 82.1513 27.1581 82.1778 29.3315C82.2905 41.1417 82.1241 52.9652 82.3374 64.7688C83.0966 67.0557 84.3545 69.2293 85.8526 71.1219C86.1589 71.0615 86.7647 70.9481 87.071 70.8945C88.5686 68.4202 90.6787 65.8856 90.3724 62.8093C90.333 51.8752 90.3126 40.9411 90.2726 30.0069C90.2461 27.5927 90.4661 25.1451 89.9269 22.7643Z" fill="url(#paint26_linear_1012_797)"/>
<path d="M115.444 22.1223C113.893 18.6582 111.423 15.5551 108.074 13.7094C104.306 11.4691 99.7392 11.2216 95.4857 11.7098C93.6282 12.091 92.9559 14.0304 92.363 15.5886C93.0686 16.9662 93.635 18.7852 95.3255 19.2132C98.1819 19.8017 101.337 18.9591 103.993 20.4905C106.623 21.8414 108.261 24.6034 108.654 27.4924M115.444 22.1223C114.412 22.2293 113.36 22.2293 112.368 22.557C110.844 23.9614 109.845 25.8138 108.654 27.4924M115.444 22.1223C115.99 23.9882 116.482 25.8941 116.536 27.8469M108.654 27.4924C108.66 52.1962 108.693 76.9063 108.614 101.617M116.536 27.8469C116.482 37.8782 116.556 47.9027 116.489 57.9274M116.536 27.8469C116.755 28.9904 116.948 30.1407 116.981 31.311C116.908 51.1596 116.982 71.0147 116.941 90.8638C116.888 94.254 117.281 97.6916 116.549 101.042M108.614 101.617C109.412 97.4105 109.08 93.1108 109.133 88.8572C109.166 83.2799 109.272 77.7025 109.186 72.132C109.219 70.0317 109.093 67.7379 110.331 65.919C112.149 63.0835 114.299 60.482 116.489 57.9274M108.614 101.617C108.534 102.012 108.374 102.814 108.287 103.208C107.269 106.867 103.707 109.615 99.9124 109.575C92.3766 109.615 84.8339 109.575 77.2913 109.596M116.489 57.9274C116.562 72.299 116.469 86.6706 116.549 101.042M116.549 101.042C116.482 105.054 114.905 108.98 112.295 112.003C109.545 114.785 105.977 116.918 102.029 117.313M77.2913 109.596C75.5934 111.909 73.9628 114.27 72.4979 116.738C82.3374 117.186 92.1966 116.798 102.029 117.313M77.2913 109.596C67.3452 109.582 57.3995 109.589 47.4469 109.602M48.7717 11.5694C41.3888 11.5493 34.0059 11.5025 26.623 11.5894C18.215 11.9105 10.9852 19.5744 11.0251 28.014C11.0052 38.1323 10.9719 48.2572 11.0451 58.3754M48.7717 11.5694C47.1539 14.2042 45.4031 16.7589 43.772 19.3871M48.7717 11.5694C57.5925 11.5359 66.4133 11.5427 75.2341 11.5493C77.0651 11.3821 78.9287 12.519 79.4347 14.3247C80.014 15.8695 79.0489 17.3608 78.5497 18.7719C75.061 19.6345 71.4527 19.3938 67.898 19.4005C59.8559 19.3871 51.814 19.4072 43.772 19.3871M11.0451 58.3754C13.8678 55.6335 15.8916 52.2229 18.4546 49.2603M11.0451 58.3754C10.9852 68.4066 10.9852 78.4378 11.0451 88.4696M43.772 19.3871C38.2665 19.4607 32.761 19.2868 27.2688 19.4473C24.06 19.5275 21.1242 21.5672 19.7727 24.4697C19.4732 25.125 19.2335 25.8005 19.0471 26.5026M18.4546 49.2603C18.8074 41.6834 17.9819 34.0261 19.0471 26.5026M18.4546 49.2603C18.5478 57.7803 18.3081 66.3069 18.4879 74.827C18.448 76.7325 18.621 78.8057 17.5692 80.498C15.7784 83.4401 13.5416 86.1018 11.0451 88.4696M11.0451 88.4696C10.9918 92.6091 10.9985 96.7486 11.0185 100.881C11.0385 104.693 12.4165 108.431 14.7532 111.421C15.5121 112.21 16.311 112.979 17.1498 113.694M19.0471 26.5026C18.7742 51.0726 19.0138 75.6491 18.9339 100.226C18.7475 102.975 20.039 105.496 21.8298 107.482M21.8298 107.482C20.1988 109.502 18.641 111.575 17.1498 113.694M21.8298 107.482C23.6406 108.666 25.6711 109.676 27.8945 109.589C34.412 109.615 40.9294 109.562 47.4469 109.602M17.1498 113.694C19.613 115.661 22.6021 117.052 25.7643 117.319M47.4469 109.602C46.0022 111.936 44.8173 114.538 42.7868 116.437C40.8163 117.132 38.666 116.905 36.6023 116.952C32.9874 116.831 29.3724 117.066 25.7643 117.319M102.029 117.313C100.658 117.453 99.2733 117.493 97.8953 117.5C76.5789 117.486 55.2624 117.48 33.9526 117.473C31.2232 117.453 28.487 117.56 25.7643 117.319M82.0711 15.8093C82.0976 14.3447 82.0976 12.1913 83.9354 11.857C85.6129 11.6363 87.3767 11.5493 89.0277 12.0041C90.2997 12.6661 90.2794 14.1775 90.2929 15.4214C90.1395 16.6653 90.6122 18.2569 89.7136 19.2601C87.397 19.5744 85.0336 19.5476 82.7102 19.2801C81.9577 18.3171 82.2375 16.9461 82.0711 15.8093ZM82.4243 22.8044C84.9202 22.5837 87.4303 22.5971 89.9269 22.7643C90.4661 25.1451 90.2461 27.5927 90.2726 30.0069C90.3126 40.9411 90.333 51.8752 90.3724 62.8093C90.6787 65.8856 88.5686 68.4202 87.071 70.8945C86.7647 70.9481 86.1589 71.0615 85.8526 71.1219C84.3545 69.2293 83.0966 67.0557 82.3374 64.7688C82.1241 52.9652 82.2905 41.1417 82.1778 29.3315C82.1513 27.1581 82.1044 24.9645 82.4243 22.8044Z" stroke="url(#paint27_linear_1012_797)" stroke-width="4"/>
<defs>
<linearGradient id="paint0_linear_1012_797" x1="103.904" y1="27.4924" x2="103.904" y2="11.5" gradientUnits="userSpaceOnUse">
<stop stop-color="#02AA93"/>
<stop offset="1" stop-color="#67FF80"/>
</linearGradient>
<linearGradient id="paint1_linear_1012_797" x1="103.904" y1="27.4924" x2="103.904" y2="11.5" gradientUnits="userSpaceOnUse">
<stop stop-color="#02AA93"/>
<stop offset="1" stop-color="#67FF80"/>
</linearGradient>
<linearGradient id="paint2_linear_1012_797" x1="29.8858" y1="58.3753" x2="29.8858" y2="11.5386" gradientUnits="userSpaceOnUse">
<stop stop-color="#02AA93"/>
<stop offset="1" stop-color="#67FF80"/>
</linearGradient>
<linearGradient id="paint3_linear_1012_797" x1="29.8858" y1="58.3753" x2="29.8858" y2="11.5386" gradientUnits="userSpaceOnUse">
<stop stop-color="#02AA93"/>
<stop offset="1" stop-color="#67FF80"/>
</linearGradient>
<linearGradient id="paint4_linear_1012_797" x1="61.6935" y1="19.4261" x2="61.6935" y2="11.5327" gradientUnits="userSpaceOnUse">
<stop stop-color="#02AA93"/>
<stop offset="1" stop-color="#67FF80"/>
</linearGradient>
<linearGradient id="paint5_linear_1012_797" x1="61.6935" y1="19.4261" x2="61.6935" y2="11.5327" gradientUnits="userSpaceOnUse">
<stop stop-color="#02AA93"/>
<stop offset="1" stop-color="#67FF80"/>
</linearGradient>
<linearGradient id="paint6_linear_1012_797" x1="86.1822" y1="19.4883" x2="86.1822" y2="11.6768" gradientUnits="userSpaceOnUse">
<stop stop-color="#02AA93"/>
<stop offset="1" stop-color="#67FF80"/>
</linearGradient>
<linearGradient id="paint7_linear_1012_797" x1="86.1822" y1="19.4883" x2="86.1822" y2="11.6768" gradientUnits="userSpaceOnUse">
<stop stop-color="#02AA93"/>
<stop offset="1" stop-color="#67FF80"/>
</linearGradient>
<linearGradient id="paint8_linear_1012_797" x1="112.575" y1="101.617" x2="112.575" y2="22.1221" gradientUnits="userSpaceOnUse">
<stop stop-color="#02AA93"/>
<stop offset="1" stop-color="#67FF80"/>
</linearGradient>
<linearGradient id="paint9_linear_1012_797" x1="112.575" y1="101.617" x2="112.575" y2="22.1221" gradientUnits="userSpaceOnUse">
<stop stop-color="#02AA93"/>
<stop offset="1" stop-color="#67FF80"/>
</linearGradient>
<linearGradient id="paint10_linear_1012_797" x1="86.281" y1="71.1219" x2="86.281" y2="22.6387" gradientUnits="userSpaceOnUse">
<stop stop-color="#02AA93"/>
<stop offset="1" stop-color="#67FF80"/>
</linearGradient>
<linearGradient id="paint11_linear_1012_797" x1="86.281" y1="71.1219" x2="86.281" y2="22.6387" gradientUnits="userSpaceOnUse">
<stop stop-color="#02AA93"/>
<stop offset="1" stop-color="#67FF80"/>
</linearGradient>
<linearGradient id="paint12_linear_1012_797" x1="16.4169" y1="113.695" x2="16.4169" y2="26.5029" gradientUnits="userSpaceOnUse">
<stop stop-color="#02AA93"/>
<stop offset="1" stop-color="#67FF80"/>
</linearGradient>
<linearGradient id="paint13_linear_1012_797" x1="16.4169" y1="113.695" x2="16.4169" y2="26.5029" gradientUnits="userSpaceOnUse">
<stop stop-color="#02AA93"/>
<stop offset="1" stop-color="#67FF80"/>
</linearGradient>
<linearGradient id="paint14_linear_1012_797" x1="116.745" y1="101.042" x2="116.745" y2="27.8467" gradientUnits="userSpaceOnUse">
<stop stop-color="#02AA93"/>
<stop offset="1" stop-color="#67FF80"/>
</linearGradient>
<linearGradient id="paint15_linear_1012_797" x1="116.745" y1="101.042" x2="116.745" y2="27.8467" gradientUnits="userSpaceOnUse">
<stop stop-color="#02AA93"/>
<stop offset="1" stop-color="#67FF80"/>
</linearGradient>
<linearGradient id="paint16_linear_1012_797" x1="14.7439" y1="88.4694" x2="14.7439" y2="49.2603" gradientUnits="userSpaceOnUse">
<stop stop-color="#02AA93"/>
<stop offset="1" stop-color="#67FF80"/>
</linearGradient>
<linearGradient id="paint17_linear_1012_797" x1="14.7439" y1="88.4694" x2="14.7439" y2="49.2603" gradientUnits="userSpaceOnUse">
<stop stop-color="#02AA93"/>
<stop offset="1" stop-color="#67FF80"/>
</linearGradient>
<linearGradient id="paint18_linear_1012_797" x1="94.5235" y1="117.313" x2="94.5235" y2="57.9272" gradientUnits="userSpaceOnUse">
<stop stop-color="#02AA93"/>
<stop offset="1" stop-color="#67FF80"/>
</linearGradient>
<linearGradient id="paint19_linear_1012_797" x1="94.5235" y1="117.313" x2="94.5235" y2="57.9272" gradientUnits="userSpaceOnUse">
<stop stop-color="#02AA93"/>
<stop offset="1" stop-color="#67FF80"/>
</linearGradient>
<linearGradient id="paint20_linear_1012_797" x1="32.2979" y1="117.319" x2="32.2979" y2="107.482" gradientUnits="userSpaceOnUse">
<stop stop-color="#02AA93"/>
<stop offset="1" stop-color="#67FF80"/>
</linearGradient>
<linearGradient id="paint21_linear_1012_797" x1="32.2979" y1="117.319" x2="32.2979" y2="107.482" gradientUnits="userSpaceOnUse">
<stop stop-color="#02AA93"/>
<stop offset="1" stop-color="#67FF80"/>
</linearGradient>
<linearGradient id="paint22_linear_1012_797" x1="63.8973" y1="117.5" x2="63.8973" y2="109.588" gradientUnits="userSpaceOnUse">
<stop stop-color="#02AA93"/>
<stop offset="1" stop-color="#67FF80"/>
</linearGradient>
<linearGradient id="paint23_linear_1012_797" x1="63.8973" y1="117.5" x2="63.8973" y2="109.588" gradientUnits="userSpaceOnUse">
<stop stop-color="#02AA93"/>
<stop offset="1" stop-color="#67FF80"/>
</linearGradient>
<linearGradient id="paint24_linear_1012_797" x1="63.9997" y1="117.5" x2="63.9997" y2="11.5" gradientUnits="userSpaceOnUse">
<stop stop-color="#02AA93"/>
<stop offset="1" stop-color="#67FF80"/>
</linearGradient>
<linearGradient id="paint25_linear_1012_797" x1="63.9997" y1="117.5" x2="63.9997" y2="11.5" gradientUnits="userSpaceOnUse">
<stop stop-color="#02AA93"/>
<stop offset="1" stop-color="#67FF80"/>
</linearGradient>
<linearGradient id="paint26_linear_1012_797" x1="63.9997" y1="117.5" x2="63.9997" y2="11.5" gradientUnits="userSpaceOnUse">
<stop stop-color="#02AA93"/>
<stop offset="1" stop-color="#67FF80"/>
</linearGradient>
<linearGradient id="paint27_linear_1012_797" x1="63.9997" y1="117.5" x2="63.9997" y2="11.5" gradientUnits="userSpaceOnUse">
<stop stop-color="#02AA93"/>
<stop offset="1" stop-color="#67FF80"/>
</linearGradient>
</defs>
</svg>
